<svg width="32" height="32" viewBox="0 0 32 32" fill="none" xmlns="http://www.w3.org/2000/svg">
<g clip-path="url(#clip0_617_3735)">
<path d="M15.9999 3.73328C9.52971 3.73328 4.2666 8.99639 4.2666 15.4666V15.4782C4.2666 19.9226 6.77771 23.9848 10.7519 25.9724L10.8488 26.0204C11.3919 26.2897 11.735 26.8444 11.7333 27.4515V30.3999C11.7342 31.2835 12.4497 31.9991 13.3333 31.9999H19.1999C20.0835 31.9991 20.799 31.2835 20.7999 30.3999V27.3253C20.8017 26.7706 21.0897 26.2551 21.5617 25.9626L22.1502 25.6008C22.4817 25.3964 22.8053 25.1724 23.1155 24.9359L23.3564 25.1768C24.0062 25.8275 25.0604 25.8275 25.7102 25.1768C26.3608 24.5271 26.3608 23.4728 25.7102 22.8231L25.4497 22.5626C26.9288 20.5448 27.7279 18.1102 27.7333 15.6079V15.4666C27.7333 8.99639 22.4693 3.73328 15.9999 3.73328ZM19.7333 30.3999C19.7333 30.6942 19.4942 30.9333 19.1999 30.9333H13.3333C13.039 30.9333 12.7999 30.6942 12.7999 30.3999V29.3333H19.7333V30.3999ZM19.7333 27.3253V28.2666H12.7999V27.4515C12.7999 27.1857 12.7599 26.9208 12.6826 26.6666H19.8177C19.7617 26.8817 19.7333 27.1031 19.7333 27.3253ZM24.9564 24.4231C24.7226 24.6559 24.3439 24.6559 24.1102 24.4231L18.7902 19.1022C19.1155 18.8693 19.4106 18.5964 19.6693 18.2897L24.9564 23.5768C25.1893 23.8106 25.1893 24.1893 24.9564 24.4231ZM10.7653 18.3644L8.94038 18.8746L8.55016 18.0337L10.1342 17.0151L9.86038 14.7057L8.07727 14.0586L8.25949 13.1599L10.1537 13.2595L11.3057 11.2399L10.2435 9.68439L10.9315 9.06217L12.4133 10.2444L14.543 9.28883L14.6044 7.43461L15.5413 7.3315L16.0364 9.12883L18.3288 9.59461L19.4853 8.13239L20.3084 8.59283L19.6426 10.3244L21.231 12.0346L23.0559 11.5244L23.4462 12.3653L21.8622 13.3839L22.1359 15.6933L23.9182 16.3404L23.7359 17.2391L21.8417 17.1395L21.1822 18.2959L20.271 17.3848C21.3297 15.3146 20.7519 12.7839 18.9013 11.3777C17.0506 9.9715 14.4577 10.0933 12.7466 11.6675C11.0355 13.2417 10.6986 15.8151 11.9466 17.7768C13.1937 19.7386 15.6684 20.5244 17.8195 19.6417L18.7208 20.5431L17.4542 21.1111L17.3928 22.9653L16.4559 23.0684L15.9608 21.2711L13.6684 20.8062L12.5119 22.2684L11.6888 21.8079L12.3546 20.0764L10.7662 18.3662L10.7653 18.3644ZM15.9999 18.9333C14.4897 18.9333 13.1288 18.0239 12.5502 16.6284C11.9724 15.2328 12.2915 13.6275 13.3599 12.5599C14.4275 11.4924 16.0337 11.1724 17.4284 11.7502C18.823 12.3279 19.7333 13.6897 19.7333 15.1999C19.7306 17.2604 18.0604 18.9306 15.9999 18.9333ZM26.6666 15.6079C26.6622 17.8266 25.9697 19.9893 24.6862 21.7982L21.9653 19.0773L22.4435 18.2382L24.599 18.3511L25.1475 15.6497L23.1182 14.9128L22.9999 13.9191L24.8053 12.7582L23.6408 10.2515L21.5688 10.8311L20.8755 10.0853L21.6346 8.11194L19.2124 6.7555L17.8977 8.41683L16.8897 8.21239L16.327 6.16972L13.5679 6.47461L13.4977 8.5875L12.5688 9.00439L10.887 7.66305L8.83816 9.51728L10.0479 11.2906L9.55193 12.1599L7.39638 12.0471L6.84793 14.7484L8.87727 15.4853L8.99549 16.4791L7.19016 17.6399L8.3546 20.1466L10.4266 19.5671L11.1199 20.3128L10.3608 22.2862L12.783 23.6426L14.0977 21.9813L15.1057 22.1857L15.6684 24.2284L18.4275 23.9235L18.4977 21.8106L19.527 21.3484L22.3537 24.1751C22.1066 24.3582 21.8506 24.5315 21.5893 24.6924L21.0017 25.0542C20.7635 25.2017 20.5493 25.3857 20.3688 25.5999H12.0533C11.8426 25.3822 11.5964 25.2017 11.3253 25.0666L11.2284 25.0186C7.61505 23.2124 5.33238 19.5182 5.33238 15.4782V15.4666C5.33238 9.58483 10.1173 4.79994 15.999 4.79994C21.8808 4.79994 26.6657 9.58483 26.6657 15.4666V15.6079H26.6666Z" fill="url(#paint0_linear_617_3735)"/>
<path d="M31.9998 13.8666H28.7998V14.9332H31.9998V13.8666Z" fill="url(#paint1_linear_617_3735)"/>
<path d="M16.5335 0H15.4668V2.66667H16.5335V0Z" fill="url(#paint2_linear_617_3735)"/>
<path d="M22.0205 3.89151L24.1538 1.75818L24.9076 2.51196L22.7743 4.64529L22.0205 3.89151Z" fill="url(#paint3_linear_617_3735)"/>
<path d="M26.8716 8.10749L29.5382 5.97327L30.2049 6.80704L27.5382 8.94127L26.8716 8.10749Z" fill="url(#paint4_linear_617_3735)"/>
<path d="M27.9668 20.728L28.5152 19.8142L31.1801 21.4124L30.6317 22.3271L27.9668 20.728Z" fill="url(#paint5_linear_617_3735)"/>
<path d="M3.2 13.8667H0V14.9334H3.2V13.8667Z" fill="url(#paint6_linear_617_3735)"/>
<path d="M7.08789 2.5111L7.84256 1.75732L9.97589 3.89066L9.22122 4.64444L7.08789 2.5111Z" fill="url(#paint7_linear_617_3735)"/>
<path d="M1.80273 6.81775L2.4694 5.98486L5.13607 8.11909L4.4694 8.95197L1.80273 6.81775Z" fill="url(#paint8_linear_617_3735)"/>
<path d="M0.801758 21.3973L3.46754 19.7955L4.01687 20.7102L1.35198 22.312L0.802647 21.3973H0.801758Z" fill="url(#paint9_linear_617_3735)"/>
</g>
<defs>
<linearGradient id="paint0_linear_617_3735" x1="4.2666" y1="8.9155" x2="26.8755" y2="18.6479" gradientUnits="userSpaceOnUse">
<stop offset="0.390625" stop-color="#7C25D0"/>
<stop offset="1" stop-color="#3231FF"/>
</linearGradient>
<linearGradient id="paint1_linear_617_3735" x1="28.7998" y1="14.0621" x2="29.8684" y2="15.7244" gradientUnits="userSpaceOnUse">
<stop offset="0.390625" stop-color="#7C25D0"/>
<stop offset="1" stop-color="#3231FF"/>
</linearGradient>
<linearGradient id="paint2_linear_617_3735" x1="15.4668" y1="0.488889" x2="16.6347" y2="0.731113" gradientUnits="userSpaceOnUse">
<stop offset="0.390625" stop-color="#7C25D0"/>
<stop offset="1" stop-color="#3231FF"/>
</linearGradient>
<linearGradient id="paint3_linear_617_3735" x1="22.0205" y1="2.28748" x2="24.6189" y2="3.6348" gradientUnits="userSpaceOnUse">
<stop offset="0.390625" stop-color="#7C25D0"/>
<stop offset="1" stop-color="#3231FF"/>
</linearGradient>
<linearGradient id="paint4_linear_617_3735" x1="26.8716" y1="6.5174" x2="29.7142" y2="8.17277" gradientUnits="userSpaceOnUse">
<stop offset="0.390625" stop-color="#7C25D0"/>
<stop offset="1" stop-color="#3231FF"/>
</linearGradient>
<linearGradient id="paint5_linear_617_3735" x1="27.9668" y1="20.2749" x2="30.5157" y2="21.965" gradientUnits="userSpaceOnUse">
<stop offset="0.390625" stop-color="#7C25D0"/>
<stop offset="1" stop-color="#3231FF"/>
</linearGradient>
<linearGradient id="paint6_linear_617_3735" x1="-1.62654e-08" y1="14.0623" x2="1.06859" y2="15.7245" gradientUnits="userSpaceOnUse">
<stop offset="0.390625" stop-color="#7C25D0"/>
<stop offset="1" stop-color="#3231FF"/>
</linearGradient>
<linearGradient id="paint7_linear_617_3735" x1="7.08789" y1="2.28663" x2="9.68675" y2="3.6346" gradientUnits="userSpaceOnUse">
<stop offset="0.390625" stop-color="#7C25D0"/>
<stop offset="1" stop-color="#3231FF"/>
</linearGradient>
<linearGradient id="paint8_linear_617_3735" x1="1.80273" y1="6.52883" x2="4.6449" y2="8.18444" gradientUnits="userSpaceOnUse">
<stop offset="0.390625" stop-color="#7C25D0"/>
<stop offset="1" stop-color="#3231FF"/>
</linearGradient>
<linearGradient id="paint9_linear_617_3735" x1="0.801758" y1="20.2569" x2="3.35345" y2="21.9473" gradientUnits="userSpaceOnUse">
<stop offset="0.390625" stop-color="#7C25D0"/>
<stop offset="1" stop-color="#3231FF"/>
</linearGradient>
<clipPath id="clip0_617_3735">
<rect width="32" height="32" fill="white"/>
</clipPath>
</defs>
</svg>
