<svg width="32" height="32" viewBox="0 0 32 32" fill="none" xmlns="http://www.w3.org/2000/svg">
<g clip-path="url(#clip0_621_4398)">
<path d="M24.1298 18.4531H14.6857C14.4267 18.4531 14.2169 18.663 14.2169 18.9219C14.2169 19.1807 14.4267 19.3906 14.6857 19.3906H24.1298C24.3887 19.3906 24.5985 19.1807 24.5985 18.9219C24.5985 18.663 24.3887 18.4531 24.1298 18.4531ZM24.1298 25.5156H14.6857C14.4267 25.5156 14.2169 25.7255 14.2169 25.9844C14.2169 26.2432 14.4267 26.4531 14.6857 26.4531H24.1298C24.3887 26.4531 24.5985 26.2432 24.5985 25.9844C24.5985 25.7255 24.3887 25.5156 24.1298 25.5156ZM24.1298 23.6406H14.6857C14.4267 23.6406 14.2169 23.8505 14.2169 24.1094C14.2169 24.3682 14.4267 24.5781 14.6857 24.5781H24.1298C24.3887 24.5781 24.5985 24.3682 24.5985 24.1094C24.5985 23.8505 24.3887 23.6406 24.1298 23.6406ZM24.1298 16.5781H14.6857C14.4267 16.5781 14.2169 16.788 14.2169 17.0469C14.2169 17.3057 14.4267 17.5156 14.6857 17.5156H24.1298C24.3887 17.5156 24.5985 17.3057 24.5985 17.0469C24.5985 16.788 24.3887 16.5781 24.1298 16.5781ZM27.2729 18.2634C27.5319 18.2634 27.7417 18.0536 27.7417 17.7947V8.17075C27.7398 8.07575 27.7086 7.93856 27.6044 7.83931L19.9024 0.137313C19.8245 0.06725 19.7259 0 19.5709 0H6.60254C5.31016 0 4.25879 1.05138 4.25879 2.34375V29.6562C4.25879 30.9486 5.31016 32 6.60254 32H25.398C26.6904 32 27.7417 30.9486 27.7417 29.6562V19.9822C27.7417 19.7233 27.5319 19.5134 27.273 19.5134C27.014 19.5134 26.8042 19.7233 26.8042 19.9822V29.6562C26.8042 30.4317 26.1734 31.0625 25.398 31.0625H6.60254C5.82716 31.0625 5.19629 30.4317 5.19629 29.6562V2.34375C5.19629 1.56831 5.82716 0.9375 6.60254 0.9375H19.1022V2.8125H8.24835C7.64529 2.8125 7.1546 3.30319 7.1546 3.90625V6.1875C7.1546 6.79056 7.64529 7.28125 8.24835 7.28125H17.4769C17.7358 7.28125 17.9456 7.07137 17.9456 6.8125C17.9456 6.55363 17.7358 6.34375 17.4769 6.34375H8.24835C8.16216 6.34375 8.0921 6.27362 8.0921 6.1875V3.90625C8.0921 3.82013 8.16216 3.75 8.24835 3.75H19.1022V6.29575C19.1022 7.58813 20.1535 8.6395 21.4459 8.6395H26.8042V17.7947C26.8042 18.0536 27.014 18.2634 27.2729 18.2634ZM21.4459 7.702C20.6705 7.702 20.0397 7.07119 20.0397 6.29575V1.60038L26.1413 7.70194L21.4459 7.702ZM11.4357 23.6406H8.06066C7.56098 23.6406 7.15441 24.0472 7.15441 24.5469V27.9219C7.15441 28.4216 7.56098 28.8281 8.06066 28.8281H11.4357C11.9354 28.8281 12.3419 28.4216 12.3419 27.9219V24.5469C12.3419 24.0472 11.9354 23.6406 11.4357 23.6406ZM11.4044 27.8906H8.09191V24.5781H11.4044V27.8906ZM12.3419 10.4219C12.3419 9.92219 11.9354 9.51562 11.4357 9.51562H8.06066C7.56098 9.51562 7.15441 9.92219 7.15441 10.4219V13.7969C7.15441 14.2966 7.56098 14.7031 8.06066 14.7031H11.4357C11.9354 14.7031 12.3419 14.2966 12.3419 13.7969V10.4219ZM11.4044 13.7656H8.09191V10.4531H11.4044V13.7656ZM24.1298 9.51562H14.6857C14.4267 9.51562 14.2169 9.7255 14.2169 9.98438C14.2169 10.2432 14.4267 10.4531 14.6857 10.4531H24.1298C24.3887 10.4531 24.5985 10.2432 24.5985 9.98438C24.5985 9.7255 24.3887 9.51562 24.1298 9.51562ZM24.1298 11.3906H14.6857C14.4267 11.3906 14.2169 11.6005 14.2169 11.8594C14.2169 12.1182 14.4267 12.3281 14.6857 12.3281H24.1298C24.3887 12.3281 24.5985 12.1182 24.5985 11.8594C24.5985 11.6005 24.3887 11.3906 24.1298 11.3906ZM12.3419 17.4844C12.3419 16.9847 11.9354 16.5781 11.4357 16.5781H8.06066C7.56098 16.5781 7.15441 16.9847 7.15441 17.4844V20.8594C7.15441 21.3591 7.56098 21.7656 8.06066 21.7656H11.4357C11.9354 21.7656 12.3419 21.3591 12.3419 20.8594V17.4844ZM11.4044 20.8281H8.09191V17.5156H11.4044V20.8281Z" fill="url(#paint0_linear_621_4398)"/>
</g>
<defs>
<linearGradient id="paint0_linear_621_4398" x1="4.25879" y1="5.86667" x2="27.684" y2="14.7802" gradientUnits="userSpaceOnUse">
<stop offset="0.390625" stop-color="#7C25D0"/>
<stop offset="1" stop-color="#3231FF"/>
</linearGradient>
<clipPath id="clip0_621_4398">
<rect width="32" height="32" fill="white"/>
</clipPath>
</defs>
</svg>
