<svg width="32" height="32" viewBox="0 0 32 32" fill="none" xmlns="http://www.w3.org/2000/svg">
<g clip-path="url(#clip0_621_4377)">
<path d="M31.9018 14.2425C31.8218 13.5275 31.2443 12.9767 30.5285 12.9317L29.1218 12.8433C28.7926 11.47 28.251 10.165 27.5085 8.95583L28.4418 7.89833C28.9176 7.35917 28.9326 6.55667 28.4785 5.99083C27.7485 5.0825 26.9176 4.25167 26.0093 3.5225C25.4435 3.06833 24.641 3.08333 24.1018 3.55917L23.0443 4.49167C21.8343 3.74917 20.5293 3.2075 19.1568 2.87833L19.0693 1.47167C19.0243 0.755 18.4735 0.1775 17.7585 0.0983333C17.1726 0.0333333 16.5818 0 16.001 0C15.4201 0 14.8285 0.0325 14.2435 0.0983333C13.5285 0.178333 12.9776 0.755833 12.9326 1.47167L12.8451 2.87833C11.4718 3.2075 10.1668 3.74917 8.95764 4.49167L7.90014 3.55917C7.36098 3.08333 6.55848 3.06833 5.99264 3.5225C5.08431 4.2525 4.25348 5.0825 3.52348 5.99083C3.06848 6.55667 3.08431 7.35917 3.55931 7.89833L4.49264 8.95583C3.75014 10.1658 3.20848 11.4708 2.87931 12.8433L1.47264 12.9317C0.755976 12.9767 0.178477 13.5275 0.0993099 14.2425C0.0343099 14.8283 0.000976562 15.42 0.000976562 16C0.000976562 16.58 0.0334766 17.1725 0.0993099 17.7575C0.17931 18.4725 0.75681 19.0233 1.47264 19.0683L2.87931 19.1558C3.20848 20.5292 3.75014 21.8342 4.49264 23.0433L3.56014 24.1008C3.08431 24.64 3.06931 25.4425 3.52348 26.0083C4.25348 26.9167 5.08348 27.7475 5.99264 28.4767C6.55848 28.9317 7.36098 28.9158 7.90014 28.44L8.95764 27.5067C10.1676 28.2492 11.4726 28.7908 12.8451 29.12L12.9326 30.5267C12.9776 31.2433 13.5285 31.8208 14.2435 31.9C14.8293 31.965 15.421 31.9983 16.001 31.9983C16.581 31.9983 17.1735 31.965 17.7585 31.9C18.4735 31.82 19.0251 31.2425 19.0693 30.5267L19.1568 29.12C20.5301 28.7908 21.8351 28.2492 23.0443 27.5067L24.1018 28.44C24.641 28.9158 25.4435 28.9308 26.0093 28.4767C26.9176 27.7467 27.7485 26.9167 28.4776 26.0083C28.9326 25.4425 28.9168 24.64 28.4418 24.1008L27.5085 23.0433C28.251 21.8333 28.7926 20.5283 29.1218 19.1558L30.5285 19.0683C31.2451 19.0233 31.8226 18.4725 31.9018 17.7575C31.9668 17.1717 32.0001 16.5808 32.0001 16C32.0001 15.4192 31.9668 14.8275 31.9018 14.2425ZM30.9701 17.655C30.941 17.9158 30.731 18.1175 30.4701 18.1342L28.7126 18.2442C28.5026 18.2575 28.3268 18.4092 28.2835 18.615C27.9651 20.1192 27.376 21.5392 26.5318 22.8367C26.4168 23.0133 26.4335 23.2442 26.5735 23.4025L27.7385 24.7233C27.9118 24.92 27.9151 25.2142 27.7468 25.4233C27.0601 26.2792 26.2776 27.0617 25.4218 27.7483C25.2126 27.9167 24.9176 27.9133 24.7218 27.74L23.401 26.575C23.2435 26.4358 23.0118 26.4183 22.8351 26.5333C21.5376 27.3767 20.1176 27.9667 18.6135 28.285C18.4076 28.3283 18.256 28.5042 18.2426 28.7142L18.1326 30.4717C18.116 30.7325 17.9151 30.9433 17.6535 30.9717C17.1018 31.0333 16.5451 31.0642 15.9993 31.0642C15.4535 31.0642 14.8968 31.0333 14.3451 30.9717C14.0843 30.9425 13.8826 30.7325 13.866 30.4717L13.756 28.7142C13.7426 28.5042 13.591 28.3283 13.3851 28.285C11.881 27.9667 10.461 27.3775 9.16348 26.5333C9.08514 26.4825 8.99681 26.4575 8.90764 26.4575C8.79598 26.4575 8.68514 26.4975 8.59764 26.575L7.27681 27.74C7.08014 27.9133 6.78598 27.9167 6.57681 27.7483C5.72098 27.0608 4.93848 26.2792 4.25181 25.4233C4.08348 25.2133 4.08681 24.9192 4.26014 24.7233L5.42514 23.4025C5.56431 23.245 5.58181 23.0133 5.46681 22.8367C4.62264 21.5392 4.03348 20.1192 3.71514 18.615C3.67181 18.4092 3.49598 18.2575 3.28598 18.245L1.52848 18.135C1.26764 18.1183 1.05681 17.9175 1.02848 17.6558C0.96681 17.105 0.935976 16.5483 0.935976 16.0017C0.935976 15.455 0.96681 14.8992 1.02848 14.3475C1.05764 14.0867 1.26764 13.885 1.52848 13.8683L3.28598 13.7583C3.49598 13.745 3.67181 13.5933 3.71514 13.3875C4.03348 11.8833 4.62264 10.4633 5.46681 9.16583C5.58181 8.98917 5.56431 8.75833 5.42514 8.6L4.26014 7.27917C4.08681 7.08333 4.08348 6.78833 4.25181 6.57917C4.93848 5.72333 5.72098 4.94083 6.57681 4.25417C6.78598 4.08583 7.08098 4.08917 7.27681 4.2625L8.59764 5.4275C8.75514 5.56667 8.98681 5.58417 9.16348 5.46917C10.461 4.62583 11.881 4.03583 13.3851 3.71833C13.591 3.675 13.7426 3.49917 13.756 3.28917L13.866 1.53167C13.8826 1.27083 14.0835 1.06 14.3451 1.03167C14.8968 0.97 15.4535 0.939167 15.9993 0.939167C16.5451 0.939167 17.1018 0.97 17.6535 1.03167C17.9143 1.06083 18.116 1.27083 18.1326 1.53167L18.2426 3.28917C18.256 3.49917 18.4076 3.675 18.6135 3.71833C20.1176 4.03667 21.5376 4.62583 22.8351 5.46917C23.0118 5.58417 23.2435 5.5675 23.401 5.4275L24.7218 4.2625C24.9185 4.08917 25.2126 4.08583 25.4218 4.25417C26.2776 4.94083 27.0601 5.72333 27.7468 6.57917C27.9151 6.78833 27.9118 7.08333 27.7385 7.27917L26.5735 8.6C26.4343 8.7575 26.4168 8.98917 26.5318 9.16583C27.3751 10.4633 27.9643 11.8833 28.2835 13.3875C28.3268 13.5933 28.5026 13.745 28.7126 13.7583L30.4701 13.8683C30.731 13.885 30.9418 14.0858 30.9701 14.3475C31.0318 14.8992 31.0626 15.4558 31.0626 16.0017C31.0626 16.5475 31.0318 17.1042 30.9701 17.6558V17.655Z" fill="url(#paint0_linear_621_4377)"/>
<path d="M16.0001 7.51501C11.321 7.51501 7.51514 11.3217 7.51514 16C7.51514 20.6783 11.321 24.485 16.0001 24.485C20.6793 24.485 24.4851 20.6792 24.4851 16C24.4851 11.3208 20.6785 7.51501 16.0001 7.51501ZM16.0001 23.5475C11.8385 23.5475 8.45264 20.1617 8.45264 16C8.45264 11.8383 11.8385 8.45251 16.0001 8.45251C20.1618 8.45251 23.5476 11.8383 23.5476 16C23.5476 20.1617 20.1618 23.5475 16.0001 23.5475Z" fill="url(#paint1_linear_621_4377)"/>
<path d="M20.0777 12.8091C19.8944 12.6257 19.6511 12.5249 19.3919 12.5249C19.1327 12.5249 18.8894 12.6257 18.7061 12.8091C18.5227 12.9924 18.5227 13.2891 18.7061 13.4716C18.8894 13.6549 19.1861 13.6549 19.3686 13.4716C19.3811 13.4591 19.4019 13.4591 19.4144 13.4716L20.1227 14.1799C20.1352 14.1924 20.1352 14.2132 20.1227 14.2257L15.3752 18.9732C15.1669 19.1816 14.8286 19.1816 14.6211 18.9732L11.4686 15.8199C11.4561 15.8074 11.4561 15.7874 11.4686 15.7741L12.1769 15.0657C12.1894 15.0532 12.2094 15.0532 12.2227 15.0657L14.6669 17.5107C14.8502 17.6941 15.1469 17.6941 15.3302 17.5107L17.8786 14.9624C18.0619 14.7791 18.0619 14.4824 17.8786 14.2991C17.6952 14.1157 17.3986 14.1157 17.2152 14.2991L14.9986 16.5157L12.8852 14.4032C12.5077 14.0249 11.8919 14.0249 11.5136 14.4032L10.8052 15.1116C10.4269 15.4891 10.4269 16.1049 10.8052 16.4832L13.9586 19.6357C14.2452 19.9224 14.6219 20.0657 14.9986 20.0657C15.3752 20.0657 15.7519 19.9224 16.0386 19.6357L20.7861 14.8882C21.1644 14.5099 21.1644 13.8949 20.7861 13.5166L20.0777 12.8082V12.8091Z" fill="url(#paint2_linear_621_4377)"/>
<path d="M22.0437 23.3959C20.337 24.7942 18.2062 25.5517 16.0003 25.5509C15.8512 25.5509 15.7012 25.5476 15.5512 25.5409C13.1712 25.4301 10.932 24.4409 9.24618 22.7542C7.56035 21.0684 6.57035 18.8284 6.45952 16.4492C6.34952 14.0851 7.11118 11.7801 8.60452 9.95672C8.76868 9.75672 8.73952 9.46089 8.53952 9.29755C8.33952 9.13339 8.04368 9.16255 7.88035 9.36339C6.23952 11.3659 5.40285 13.8976 5.52368 16.4934C5.64535 19.1076 6.73202 21.5667 8.58368 23.4184C10.4353 25.2701 12.8945 26.3567 15.5079 26.4784C15.6729 26.4859 15.837 26.4901 16.0012 26.4901C18.4229 26.4901 20.7629 25.6584 22.6379 24.1226C22.8379 23.9584 22.8679 23.6634 22.7037 23.4626C22.5395 23.2626 22.2437 23.2334 22.0437 23.3976V23.3959Z" fill="url(#paint3_linear_621_4377)"/>
<path d="M23.4164 8.58332C21.5648 6.73165 19.1056 5.64498 16.4923 5.52332C13.8964 5.40248 11.3639 6.23915 9.36227 7.87998C9.16227 8.04415 9.13227 8.33915 9.29643 8.53915C9.4606 8.73915 9.7556 8.76832 9.95643 8.60498C11.7789 7.11165 14.0848 6.34998 16.4489 6.45998C18.8289 6.57082 21.0681 7.56082 22.7539 9.24665C24.4398 10.9333 25.4298 13.1725 25.5406 15.5516C25.6506 17.9158 24.8889 20.2216 23.3956 22.0441C23.2314 22.2441 23.2606 22.54 23.4606 22.7041C23.5481 22.7758 23.6531 22.81 23.7573 22.81C23.8923 22.81 24.0273 22.7516 24.1206 22.6383C25.7606 20.6366 26.5973 18.1041 26.4764 15.5083C26.3548 12.8941 25.2681 10.4358 23.4164 8.58415V8.58332Z" fill="url(#paint4_linear_621_4377)"/>
</g>
<defs>
<linearGradient id="paint0_linear_621_4377" x1="0.0009764" y1="5.86636" x2="28.7999" y2="20.7995" gradientUnits="userSpaceOnUse">
<stop offset="0.390625" stop-color="#7C25D0"/>
<stop offset="1" stop-color="#3231FF"/>
</linearGradient>
<linearGradient id="paint1_linear_621_4377" x1="7.51514" y1="10.6262" x2="22.7881" y2="18.5455" gradientUnits="userSpaceOnUse">
<stop offset="0.390625" stop-color="#7C25D0"/>
<stop offset="1" stop-color="#3231FF"/>
</linearGradient>
<linearGradient id="paint2_linear_621_4377" x1="10.5215" y1="13.9074" x2="18.4148" y2="19.6326" gradientUnits="userSpaceOnUse">
<stop offset="0.390625" stop-color="#7C25D0"/>
<stop offset="1" stop-color="#3231FF"/>
</linearGradient>
<linearGradient id="paint3_linear_621_4377" x1="5.51221" y1="12.3627" x2="21.0804" y2="20.4345" gradientUnits="userSpaceOnUse">
<stop offset="0.390625" stop-color="#7C25D0"/>
<stop offset="1" stop-color="#3231FF"/>
</linearGradient>
<linearGradient id="paint4_linear_621_4377" x1="9.19043" y1="8.68317" x2="24.7584" y2="16.7551" gradientUnits="userSpaceOnUse">
<stop offset="0.390625" stop-color="#7C25D0"/>
<stop offset="1" stop-color="#3231FF"/>
</linearGradient>
<clipPath id="clip0_621_4377">
<rect width="32" height="32" fill="white"/>
</clipPath>
</defs>
</svg>
