<svg width="190" height="44" viewBox="0 0 190 44" fill="none" xmlns="http://www.w3.org/2000/svg">
<path d="M32.1234 28.3158C31.5302 28.2237 30.9659 28.3062 30.4692 28.5194C29.7506 28.8296 28.9163 28.689 28.3569 28.1414L27.3586 27.1624C26.5484 26.3676 26.0903 25.2771 26.0903 24.1382V19.5294C26.0903 18.7103 26.4182 17.93 27.0017 17.3582L29.5915 14.8187C30.0111 14.4067 30.5946 14.1935 31.1685 14.2856C31.5061 14.3389 31.863 14.3389 32.2343 14.2662C33.4545 14.0239 34.419 13.0158 34.5974 11.78C34.9013 9.73965 33.1603 8.01434 31.1251 8.35843C29.8567 8.57167 28.8488 9.62819 28.68 10.9076C28.6221 11.3583 28.6607 11.7945 28.7813 12.1968C29.0079 12.9383 28.7813 13.7428 28.2315 14.2856L26.9439 15.5505C26.2832 16.1999 25.391 16.5634 24.4698 16.5634H18.21C17.149 16.5634 16.1315 16.1466 15.3743 15.4051L13.778 13.8397C13.2812 13.3502 13.0353 12.6426 13.1848 11.9641C13.2571 11.6297 13.2764 11.2711 13.2234 10.9028C13.0449 9.61364 12.0273 8.56198 10.7493 8.35843C8.71416 8.03857 6.98283 9.78328 7.31559 11.8285C7.52297 13.1176 8.58881 14.1402 9.88128 14.305C10.2526 14.3534 10.6143 14.3292 10.9519 14.2468C11.603 14.0917 12.2926 14.2468 12.7749 14.7217L14.4001 16.3162C15.3357 17.2322 15.8614 18.4922 15.8614 19.8056V24.5599C15.8614 25.7569 15.3791 26.9055 14.5255 27.744L13.8166 28.4418C13.2668 28.9798 12.4325 29.0913 11.7718 28.6987C11.222 28.374 10.5613 28.2189 9.85715 28.3158C8.55503 28.4903 7.49891 29.5323 7.31082 30.836C6.99735 32.9781 8.93123 34.7664 11.0966 34.1848C12.3939 33.8359 13.2571 32.6049 13.2571 31.2527C13.2571 31.0007 13.3584 30.7633 13.532 30.5888L16.2328 27.9378C16.9417 27.2399 17.8965 26.8474 18.8948 26.8474H23.9056C24.6965 26.8474 25.4536 27.1575 26.0179 27.7149L27.9181 29.5759C28.3762 30.0266 28.6607 30.6373 28.6607 31.2818C28.6607 31.4902 28.68 31.7034 28.7282 31.9215C28.9887 33.1331 29.9918 34.083 31.2167 34.2575C33.2374 34.5434 34.9398 32.7988 34.5974 30.7633C34.3901 29.5129 33.3773 28.5145 32.1282 28.3207L32.1234 28.3158Z" fill="#0A223C"/>
<path d="M23.9032 8.14181C23.9032 9.76946 22.5863 11.0864 20.9586 11.0864C19.331 11.0864 18.0141 9.76946 18.0141 8.14181C18.0141 6.51417 19.331 5.19727 20.9586 5.19727C22.5863 5.19727 23.9032 6.51417 23.9032 8.14181Z" fill="url(#paint0_linear_477_249)"/>
<path d="M37.7599 21.6511C37.7599 23.2787 36.4429 24.5957 34.8153 24.5957C33.1876 24.5957 31.8707 23.2787 31.8707 21.6511C31.8707 20.0234 33.1876 18.7065 34.8153 18.7065C36.4429 18.7065 37.7599 20.0234 37.7599 21.6511Z" fill="url(#paint1_linear_477_249)"/>
<path d="M11.0863 21.6511C11.0863 23.2787 9.76944 24.5957 8.14178 24.5957C6.51413 24.5957 5.19722 23.2787 5.19722 21.6511C5.19722 20.0234 6.51413 18.7065 8.14178 18.7065C9.76944 18.7065 11.0863 20.0234 11.0863 21.6511Z" fill="url(#paint2_linear_477_249)"/>
<path d="M24.5958 35.508C24.5958 37.1357 23.3564 38.4526 21.8245 38.4526C20.2926 38.4526 19.0531 37.1357 19.0531 35.508C19.0531 33.8804 20.2926 32.5635 21.8245 32.5635C23.3564 32.5635 24.5958 33.8804 24.5958 35.508Z" fill="url(#paint3_linear_477_249)"/>
<path d="M3.46419 14.55C3.46419 15.5079 2.6901 16.2821 1.73213 16.2821C0.774156 16.2821 0 15.5079 0 14.55C0 13.592 0.774156 12.8179 1.73213 12.8179C2.6901 12.8179 3.46419 13.592 3.46419 14.55Z" fill="url(#paint4_linear_477_249)"/>
<path d="M15.5881 1.73209C15.5881 2.69006 14.8141 3.46419 13.8561 3.46419C12.8981 3.46419 12.124 2.69006 12.124 1.73209C12.124 0.774115 12.8981 0 13.8561 0C14.8141 0 15.5881 0.774115 15.5881 1.73209Z" fill="url(#paint5_linear_477_249)"/>
<path d="M29.4464 2.42496C29.4464 3.38294 28.6723 4.15706 27.7143 4.15706C26.7563 4.15706 25.9822 3.38294 25.9822 2.42496C25.9822 1.46699 26.7563 0.692871 27.7143 0.692871C28.6723 0.692871 29.4464 1.46699 29.4464 2.42496Z" fill="url(#paint6_linear_477_249)"/>
<path d="M41.9164 13.8566C41.9164 14.8146 41.1422 15.5887 40.1843 15.5887C39.2263 15.5887 38.4522 14.8146 38.4522 13.8566C38.4522 12.8986 39.2263 12.1245 40.1843 12.1245C41.1422 12.1245 41.9164 12.8986 41.9164 13.8566Z" fill="url(#paint7_linear_477_249)"/>
<path d="M42.2641 29.7931C42.2641 30.7511 41.4899 31.5252 40.532 31.5252C39.574 31.5252 38.7999 30.7511 38.7999 29.7931C38.7999 28.8352 39.574 28.061 40.532 28.061C41.4899 28.061 42.2641 28.8352 42.2641 29.7931Z" fill="url(#paint8_linear_477_249)"/>
<path d="M31.1775 40.8771C31.1775 41.8351 30.4033 42.6092 29.4454 42.6092C28.4874 42.6092 27.7133 41.8351 27.7133 40.8771C27.7133 39.9191 28.4874 39.145 29.4454 39.145C30.4033 39.145 31.1775 39.9191 31.1775 40.8771Z" fill="url(#paint9_linear_477_249)"/>
<path d="M16.2819 40.1843C16.2819 41.1422 15.5078 41.9163 14.5498 41.9163C13.5918 41.9163 12.8177 41.1422 12.8177 40.1843C12.8177 39.2263 13.5918 38.4521 14.5498 38.4521C15.5078 38.4521 16.2819 39.2263 16.2819 40.1843Z" fill="url(#paint10_linear_477_249)"/>
<path d="M3.46542 28.0607C3.46542 29.0187 2.76868 29.7928 1.90651 29.7928C1.04434 29.7928 0.347649 29.0187 0.347649 28.0607C0.347649 27.1027 1.04434 26.3286 1.90651 26.3286C2.76868 26.3286 3.46542 27.1027 3.46542 28.0607Z" fill="url(#paint11_linear_477_249)"/>
<path d="M79.4519 21.2744C79.4519 24.2523 78.9072 26.8127 77.8177 28.9554C76.7282 31.089 75.2346 32.7323 73.3371 33.8854C71.4486 35.0294 69.3014 35.6014 66.8954 35.6014C64.4803 35.6014 62.324 35.0294 60.4264 33.8854C58.5379 32.7323 57.0489 31.0845 55.9594 28.9418C54.8699 26.7991 54.3252 24.2433 54.3252 21.2744C54.3252 18.2964 54.8699 15.7406 55.9594 13.6069C57.0489 11.4642 58.5379 9.82091 60.4264 8.67692C62.324 7.52386 64.4803 6.94733 66.8954 6.94733C69.3014 6.94733 71.4486 7.52386 73.3371 8.67692C75.2346 9.82091 76.7282 11.4642 77.8177 13.6069C78.9072 15.7406 79.4519 18.2964 79.4519 21.2744ZM75.2846 21.2744C75.2846 19.0045 74.9169 17.0934 74.1814 15.5408C73.4551 13.9792 72.4564 12.7989 71.1853 11.9999C69.9233 11.1919 68.4933 10.7878 66.8954 10.7878C65.2883 10.7878 63.8538 11.1919 62.5918 11.9999C61.3298 12.7989 60.3311 13.9792 59.5957 15.5408C58.8693 17.0934 58.5062 19.0045 58.5062 21.2744C58.5062 23.5442 58.8693 25.4599 59.5957 27.0215C60.3311 28.574 61.3298 29.7543 62.5918 30.5624C63.8538 31.3614 65.2883 31.7609 66.8954 31.7609C68.4933 31.7609 69.9233 31.3614 71.1853 30.5624C72.4564 29.7543 73.4551 28.574 74.1814 27.0215C74.9169 25.4599 75.2846 23.5442 75.2846 21.2744Z" fill="#0A223C"/>
<path d="M83.9882 43.0645V14.3015H87.9649V17.6926H88.3054C88.5415 17.2568 88.8819 16.7529 89.3268 16.1809C89.7717 15.6089 90.3891 15.1096 91.179 14.6828C91.9689 14.247 93.013 14.0291 94.3113 14.0291C96.0001 14.0291 97.5072 14.4559 98.8328 15.3093C100.158 16.1627 101.198 17.393 101.951 19C102.714 20.607 103.095 22.5409 103.095 24.8016C103.095 27.0624 102.719 29.0008 101.965 30.6169C101.212 32.2239 100.176 33.4632 98.86 34.3348C97.5435 35.1973 96.0409 35.6286 94.3522 35.6286C93.0811 35.6286 92.0415 35.4152 91.2335 34.9885C90.4345 34.5618 89.808 34.0624 89.3541 33.4904C88.9001 32.9185 88.5505 32.41 88.3054 31.9651H88.0603V43.0645H83.9882ZM87.9786 24.7608C87.9786 26.2316 88.1919 27.5209 88.6186 28.6285C89.0454 29.7362 89.6628 30.6033 90.4708 31.2297C91.2789 31.8471 92.2685 32.1558 93.4397 32.1558C94.6563 32.1558 95.6732 31.8335 96.4903 31.1889C97.3075 30.5352 97.9249 29.6499 98.3425 28.5332C98.7692 27.4164 98.9826 26.159 98.9826 24.7608C98.9826 23.3807 98.7738 22.1414 98.3561 21.0428C97.9475 19.9442 97.3302 19.0772 96.5039 18.4416C95.6868 17.8061 94.6654 17.4883 93.4397 17.4883C92.2594 17.4883 91.2607 17.7925 90.4436 18.4008C89.6355 19.0091 89.0227 19.858 88.605 20.9475C88.1874 22.037 87.9786 23.3081 87.9786 24.7608Z" fill="#0A223C"/>
<path d="M117.039 14.3015V17.57H105.613V14.3015H117.039ZM108.677 9.28977H112.749V29.0779C112.749 29.8678 112.867 30.4625 113.103 30.862C113.339 31.2524 113.643 31.5203 114.016 31.6655C114.397 31.8017 114.81 31.8698 115.255 31.8698C115.582 31.8698 115.868 31.8471 116.113 31.8017C116.358 31.7563 116.549 31.72 116.685 31.6928L117.42 35.0566C117.184 35.1474 116.848 35.2382 116.413 35.329C115.977 35.4289 115.432 35.4833 114.778 35.4924C113.707 35.5106 112.708 35.3199 111.782 34.9204C110.856 34.5209 110.107 33.9036 109.535 33.0683C108.963 32.233 108.677 31.1843 108.677 29.9223V9.28977Z" fill="#0A223C"/>
<path d="M121.16 35.22V14.3015H125.232V35.22H121.16ZM123.216 11.0738C122.508 11.0738 121.9 10.8378 121.391 10.3657C120.892 9.88446 120.642 9.31247 120.642 8.64968C120.642 7.97782 120.892 7.40583 121.391 6.93371C121.9 6.45251 122.508 6.21191 123.216 6.21191C123.925 6.21191 124.528 6.45251 125.028 6.93371C125.536 7.40583 125.79 7.97782 125.79 8.64968C125.79 9.31247 125.536 9.88446 125.028 10.3657C124.528 10.8378 123.925 11.0738 123.216 11.0738Z" fill="#0A223C"/>
<path d="M130.327 35.22V14.3015H134.235V17.7062H134.494C134.93 16.5532 135.642 15.6543 136.632 15.0097C137.622 14.356 138.807 14.0291 140.187 14.0291C141.585 14.0291 142.756 14.356 143.7 15.0097C144.654 15.6634 145.357 16.5622 145.811 17.7062H146.029C146.528 16.5895 147.323 15.6997 148.412 15.0369C149.502 14.3651 150.8 14.0291 152.307 14.0291C154.205 14.0291 155.753 14.6238 156.951 15.8132C158.159 17.0026 158.763 18.7957 158.763 21.1926V35.22H154.691V21.574C154.691 20.1576 154.305 19.1317 153.533 18.4961C152.761 17.8606 151.84 17.5428 150.768 17.5428C149.443 17.5428 148.412 17.9514 147.677 18.7685C146.942 19.5765 146.574 20.6161 146.574 21.8872V35.22H142.515V21.3152C142.515 20.1803 142.161 19.2678 141.453 18.5778C140.745 17.8878 139.823 17.5428 138.689 17.5428C137.917 17.5428 137.204 17.7471 136.55 18.1556C135.906 18.5551 135.384 19.1135 134.984 19.8308C134.594 20.548 134.399 21.3788 134.399 22.323V35.22H130.327Z" fill="#0A223C"/>
<path d="M163.837 35.22V14.3015H167.909V35.22H163.837ZM165.893 11.0738C165.185 11.0738 164.577 10.8378 164.069 10.3657C163.569 9.88446 163.319 9.31247 163.319 8.64968C163.319 7.97782 163.569 7.40583 164.069 6.93371C164.577 6.45251 165.185 6.21191 165.893 6.21191C166.602 6.21191 167.205 6.45251 167.705 6.93371C168.213 7.40583 168.467 7.97782 168.467 8.64968C168.467 9.31247 168.213 9.88446 167.705 10.3657C167.205 10.8378 166.602 11.0738 165.893 11.0738Z" fill="#0A223C"/>
<path d="M176.218 14.3015L180.835 22.4456L185.492 14.3015H189.946L183.422 24.7608L190 35.22H185.547L180.835 27.4028L176.136 35.22H171.669L178.179 24.7608L171.751 14.3015H176.218Z" fill="#0A223C"/>
<defs>
<linearGradient id="paint0_linear_477_249" x1="18.0141" y1="6.27694" x2="23.3143" y2="9.0252" gradientUnits="userSpaceOnUse">
<stop offset="0.390625" stop-color="#7C25D0"/>
<stop offset="1" stop-color="#3231FF"/>
</linearGradient>
<linearGradient id="paint1_linear_477_249" x1="31.8707" y1="19.7862" x2="37.171" y2="22.5345" gradientUnits="userSpaceOnUse">
<stop offset="0.390625" stop-color="#7C25D0"/>
<stop offset="1" stop-color="#3231FF"/>
</linearGradient>
<linearGradient id="paint2_linear_477_249" x1="5.19722" y1="19.7862" x2="10.4974" y2="22.5345" gradientUnits="userSpaceOnUse">
<stop offset="0.390625" stop-color="#7C25D0"/>
<stop offset="1" stop-color="#3231FF"/>
</linearGradient>
<linearGradient id="paint3_linear_477_249" x1="19.0531" y1="33.6432" x2="24.1652" y2="36.138" gradientUnits="userSpaceOnUse">
<stop offset="0.390625" stop-color="#7C25D0"/>
<stop offset="1" stop-color="#3231FF"/>
</linearGradient>
<linearGradient id="paint4_linear_477_249" x1="-1.76083e-08" y1="13.453" x2="3.11777" y2="15.0696" gradientUnits="userSpaceOnUse">
<stop offset="0.390625" stop-color="#7C25D0"/>
<stop offset="1" stop-color="#3231FF"/>
</linearGradient>
<linearGradient id="paint5_linear_477_249" x1="12.124" y1="0.635102" x2="15.2417" y2="2.25173" gradientUnits="userSpaceOnUse">
<stop offset="0.390625" stop-color="#7C25D0"/>
<stop offset="1" stop-color="#3231FF"/>
</linearGradient>
<linearGradient id="paint6_linear_477_249" x1="25.9822" y1="1.32797" x2="29.1" y2="2.9446" gradientUnits="userSpaceOnUse">
<stop offset="0.390625" stop-color="#7C25D0"/>
<stop offset="1" stop-color="#3231FF"/>
</linearGradient>
<linearGradient id="paint7_linear_477_249" x1="38.4522" y1="12.7596" x2="41.57" y2="14.3762" gradientUnits="userSpaceOnUse">
<stop offset="0.390625" stop-color="#7C25D0"/>
<stop offset="1" stop-color="#3231FF"/>
</linearGradient>
<linearGradient id="paint8_linear_477_249" x1="38.7999" y1="28.6961" x2="41.9176" y2="30.3128" gradientUnits="userSpaceOnUse">
<stop offset="0.390625" stop-color="#7C25D0"/>
<stop offset="1" stop-color="#3231FF"/>
</linearGradient>
<linearGradient id="paint9_linear_477_249" x1="27.7133" y1="39.7801" x2="30.8311" y2="41.3967" gradientUnits="userSpaceOnUse">
<stop offset="0.390625" stop-color="#7C25D0"/>
<stop offset="1" stop-color="#3231FF"/>
</linearGradient>
<linearGradient id="paint10_linear_477_249" x1="12.8177" y1="39.0873" x2="15.9354" y2="40.7039" gradientUnits="userSpaceOnUse">
<stop offset="0.390625" stop-color="#7C25D0"/>
<stop offset="1" stop-color="#3231FF"/>
</linearGradient>
<linearGradient id="paint11_linear_477_249" x1="0.347649" y1="26.9637" x2="3.27135" y2="28.3281" gradientUnits="userSpaceOnUse">
<stop offset="0.390625" stop-color="#7C25D0"/>
<stop offset="1" stop-color="#3231FF"/>
</linearGradient>
</defs>
</svg>
