<svg width="190" height="41" viewBox="0 0 190 41" fill="none" xmlns="http://www.w3.org/2000/svg">
<path d="M43.005 26.3263C42.8656 23.5985 41.9234 20.9116 40.1446 18.7246C39.4303 17.8505 38.6004 17.0716 37.6719 16.4424C36.4441 15.6057 35.104 15.0241 33.6483 14.7146C33.4204 14.6669 33.3081 14.5751 33.2435 14.3438C32.7537 12.599 30.8593 11.6126 29.1485 12.2044C27.3458 12.8235 26.4785 14.8336 27.2608 16.5818C28.0192 18.2756 30.1076 18.9559 31.7538 18.0341C31.9102 17.9491 32.0361 17.9491 32.1925 18.0001C32.7571 18.1872 33.3081 18.4015 33.8387 18.677C35.7638 19.6633 37.2638 21.0714 38.1311 23.0748C39.7841 26.9045 38.7331 31.3907 35.5155 34.1049C32.9578 36.2579 29.9818 37.0028 26.6996 36.4552C22.1895 35.7035 18.3904 32.2615 17.785 27.4385C17.7612 27.2583 17.7101 27.197 17.5095 27.2174C15.683 27.4181 13.8566 27.4895 12.0335 27.2481C11.9553 27.2379 11.877 27.2276 11.7988 27.214C11.7138 27.1936 11.6049 27.1766 11.4791 27.163C10.8941 27.0678 10.3125 26.9419 9.74447 26.7617C9.28871 26.6052 8.86356 26.4216 8.48942 26.2447V26.2311H8.48262C8.48262 26.2311 8.47582 26.2379 8.47242 26.2379C7.62551 25.8297 7.05751 25.4454 7.05071 25.442C6.16639 24.8094 5.46914 23.9931 5.00657 22.9829C4.30592 21.4592 4.2447 19.881 4.65964 18.2756C5.12561 16.4594 6.07795 14.9424 7.54048 13.752C7.71734 13.6058 7.76836 13.6534 7.82618 13.8506C7.88741 14.0751 7.98264 14.2894 8.06427 14.5071C8.87376 16.6703 9.79889 18.7756 11.1186 20.6871C11.9825 21.9387 12.9824 23.0543 14.3157 23.8298C14.962 24.2074 15.6932 24.4863 16.4449 24.5441C14.3905 23.1632 12.9722 20.3198 12.2274 18.0205C11.2376 14.9628 11.4009 11.8711 11.9247 8.75901C11.9519 8.60595 11.9383 8.55154 11.7682 8.56174C9.96215 8.69099 8.17991 8.88825 6.57453 9.79298C4.5202 10.9494 2.74816 12.6364 1.57134 14.6907C0.156427 17.16 -0.367362 20.1531 0.265265 22.9285C0.894491 25.7039 2.70394 28.2174 5.19704 29.5847C7.61191 30.9078 11.0301 31.4146 13.7579 31.02C13.7987 31.0166 13.8429 31.0098 13.8872 31.003C14.6184 30.8976 14.5334 31.8261 14.7375 32.4349C14.9892 33.173 15.3225 33.8838 15.7204 34.5505C16.5435 35.928 17.6489 37.1388 18.938 38.0946C21.2406 39.802 24.0806 40.7169 26.9411 40.904C31.4375 41.1999 36.0972 39.6387 39.2603 36.4314C41.9098 33.7444 43.1887 29.9962 43.0016 26.3195L43.005 26.3263ZM30.0566 16.6907C29.2607 16.6907 28.6111 16.0444 28.6111 15.2485C28.6111 14.4527 29.2573 13.8064 30.0566 13.8064C30.8559 13.8064 31.4987 14.4527 31.4987 15.2485C31.4987 16.0444 30.8525 16.6907 30.0566 16.6907Z" fill="url(#paint0_linear_477_131)"/>
<path d="M56.9299 18.0857C56.6238 16.5484 55.9775 15.0824 54.9912 13.8682C53.7293 12.3138 51.9641 11.2119 50.0628 10.5826C48.8622 10.1847 47.6105 9.97041 46.3521 9.89218C46.0766 9.87517 42.7672 9.89898 42.774 9.93639C42.7434 9.64729 42.6549 9.37179 42.5801 9.09629C42.3862 8.37523 42.0869 7.69159 41.7808 7.01474C41.7502 6.96713 41.7128 6.91951 41.6856 6.86849C41.0462 5.64065 40.206 4.56926 39.1823 3.64413C38.6381 3.15095 38.0735 2.67478 37.4136 2.33466L37.4 2.32786C36.7028 1.80407 35.9137 1.45034 35.111 1.13063C32.4377 0.0592419 29.6657 -0.209454 26.8256 0.151076C24.2475 0.480995 21.8598 1.3449 19.7783 2.90607C15.5438 6.08281 13.4588 10.2765 14.1289 15.6232C14.5472 18.9428 16.088 21.708 18.6661 23.861C20.166 25.1126 21.8871 25.9187 23.8156 26.2691C23.8462 26.3711 23.8802 26.4697 23.9108 26.5718C24.5094 28.5887 26.7746 29.507 28.5977 28.4561C28.9752 28.2384 29.3357 27.9833 29.516 27.5547C29.5296 27.5411 29.5432 27.5275 29.5568 27.5139C29.6691 27.4425 29.7099 27.3302 29.7371 27.2112C29.9684 26.9289 30.0602 26.582 30.135 26.2453C30.2881 25.5582 30.1792 24.8882 29.8629 24.2623C29.0466 22.6434 27.1283 22.0243 25.5094 22.8406C25.3801 22.9053 25.2645 23.0209 25.0808 22.9631C22.5911 22.1774 20.3531 20.572 19.2035 18.1844C17.3668 14.3682 18.3736 9.51804 21.6626 6.82087C24.5502 4.45362 27.8426 3.76658 31.4445 4.69171C33.4886 5.2155 35.3797 6.32429 36.8014 7.88546C38.383 9.62348 38.9 11.518 39.4306 13.7288C39.5564 13.7186 39.6721 13.6777 39.7945 13.6335C39.7537 13.6505 39.7163 13.6641 39.6789 13.6777C40.9713 13.3546 42.6107 13.5077 43.927 13.5791C45.5698 13.6675 47.1684 13.9634 48.6751 14.6505C50.3179 15.3988 51.5933 16.5348 52.2838 18.2388C52.879 19.6979 52.8926 21.2012 52.4947 22.7046C52.0423 24.4222 51.1512 25.8813 49.7873 27.0343C49.6717 27.133 49.573 27.303 49.3689 27.2486C49.3485 27.2282 48.1819 24.2725 48.2091 24.2691C47.8962 23.4086 47.4575 22.606 47.0221 21.8067C46.5289 20.9087 45.9711 20.0584 45.3215 19.2659C45.2875 19.2217 45.2671 19.1673 45.2399 19.1163L45.2331 19.1027C45.0494 18.9734 44.9065 18.8102 44.7909 18.6231C44.2059 18.0993 43.6447 17.5517 42.9576 17.1538C42.2434 16.7422 41.4951 16.4429 40.6686 16.3511C40.6788 16.3851 40.689 16.4225 40.6992 16.4565C41.4101 16.9701 41.9951 17.613 42.5529 18.283C42.9474 18.7592 43.3386 19.2387 43.6039 19.8067L43.6107 19.8203C44.0528 20.419 44.3453 21.0958 44.614 21.7795C45.58 24.2555 45.8147 26.8269 45.5936 29.456C45.5222 30.3165 45.4133 31.1736 45.2603 32.0273C45.2433 32.1192 45.2535 32.2246 45.1684 32.296C45.1684 32.3096 45.1684 32.3232 45.1616 32.3368C46.0834 32.4117 46.9881 32.279 47.8826 32.0818C50.1716 31.5716 52.1954 30.3811 53.8075 28.6873C53.8484 28.6431 53.8892 28.5921 53.8756 28.5377C53.8756 28.5241 53.8654 28.5173 53.8552 28.5105C54.083 28.4424 54.2565 28.235 54.4028 28.0377C55.9061 25.9902 56.9333 23.5549 57.1135 21.021C57.1816 20.0482 57.1237 19.0619 56.9333 18.1027L56.9299 18.0857ZM26.9719 24.3406C27.7678 24.3406 28.414 24.9868 28.414 25.7827C28.414 26.5786 27.7678 27.2248 26.9719 27.2248C26.176 27.2248 25.5298 26.5786 25.5298 25.7827C25.5298 24.9868 26.176 24.3406 26.9719 24.3406Z" fill="url(#paint1_linear_477_131)"/>
<path d="M93.4507 15.7358H89.2301C89.0678 14.834 88.7657 14.0404 88.3238 13.355C87.8819 12.6696 87.3407 12.0879 86.7004 11.6099C86.0601 11.1319 85.3432 10.7712 84.5495 10.5277C83.7649 10.2842 82.9307 10.1624 82.0469 10.1624C80.4507 10.1624 79.0213 10.5638 77.7587 11.3664C76.5051 12.169 75.5131 13.3459 74.7826 14.8971C74.0611 16.4483 73.7004 18.3421 73.7004 20.5787C73.7004 22.8333 74.0611 24.7362 74.7826 26.2874C75.5131 27.8385 76.5096 29.0109 77.7722 29.8045C79.0348 30.5982 80.4552 30.995 82.0334 30.995C82.9082 30.995 83.7379 30.8777 84.5225 30.6433C85.3161 30.3998 86.0331 30.0435 86.6734 29.5746C87.3137 29.1056 87.8548 28.5329 88.2967 27.8566C88.7476 27.1712 89.0588 26.3866 89.2301 25.5028L93.4507 25.5163C93.2253 26.8781 92.7879 28.1316 92.1385 29.277C91.4982 30.4133 90.673 31.3963 89.663 32.226C88.6619 33.0467 87.5166 33.6825 86.227 34.1334C84.9373 34.5843 83.5305 34.8098 82.0064 34.8098C79.6075 34.8098 77.4701 34.2416 75.5943 33.1053C73.7184 31.9599 72.2394 30.3231 71.1572 28.1948C70.084 26.0664 69.5474 23.5277 69.5474 20.5787C69.5474 17.6207 70.0885 15.082 71.1707 12.9627C72.2529 10.8343 73.732 9.20198 75.6078 8.06566C77.4836 6.92033 79.6165 6.34766 82.0064 6.34766C83.4764 6.34766 84.8472 6.55959 86.1188 6.98346C87.3994 7.3983 88.5492 8.01155 89.5683 8.82321C90.5874 9.62585 91.4306 10.6089 92.098 11.7722C92.7653 12.9266 93.2162 14.2478 93.4507 15.7358Z" fill="#0A223C"/>
<path d="M103.794 34.8909C102.477 34.8909 101.287 34.6474 100.223 34.1604C99.1583 33.6644 98.3151 32.9475 97.6928 32.0095C97.0796 31.0716 96.773 29.9218 96.773 28.56C96.773 27.3876 96.9984 26.4226 97.4493 25.6651C97.9003 24.9075 98.509 24.3078 99.2756 23.8659C100.042 23.424 100.899 23.0903 101.846 22.8649C102.793 22.6394 103.758 22.4681 104.741 22.3508C105.985 22.2065 106.995 22.0893 107.771 21.9991C108.546 21.8999 109.11 21.7421 109.462 21.5256C109.814 21.3092 109.989 20.9575 109.989 20.4705V20.3758C109.989 19.1944 109.656 18.279 108.988 17.6297C108.33 16.9804 107.347 16.6557 106.039 16.6557C104.678 16.6557 103.604 16.9578 102.82 17.562C102.044 18.1573 101.508 18.8201 101.21 19.5506L97.4088 18.6848C97.8597 17.4223 98.518 16.4032 99.3838 15.6276C100.259 14.843 101.264 14.2748 102.4 13.9231C103.537 13.5624 104.732 13.382 105.985 13.382C106.815 13.382 107.694 13.4812 108.623 13.6796C109.561 13.869 110.436 14.2207 111.248 14.7348C112.068 15.2488 112.74 15.9838 113.263 16.9398C113.786 17.8867 114.048 19.1177 114.048 20.6328V34.431H110.098V31.5902H109.935C109.674 32.1133 109.281 32.6273 108.758 33.1323C108.235 33.6374 107.563 34.0567 106.743 34.3904C105.922 34.7241 104.939 34.8909 103.794 34.8909ZM104.673 31.6443C105.791 31.6443 106.747 31.4233 107.541 30.9814C108.344 30.5395 108.952 29.9624 109.367 29.2499C109.791 28.5284 110.003 27.7574 110.003 26.9367V24.2582C109.859 24.4025 109.579 24.5378 109.164 24.664C108.758 24.7813 108.294 24.885 107.771 24.9752C107.248 25.0563 106.738 25.133 106.242 25.2052C105.746 25.2683 105.331 25.3224 104.998 25.3675C104.213 25.4667 103.496 25.6335 102.847 25.868C102.207 26.1025 101.693 26.4407 101.305 26.8826C100.926 27.3155 100.737 27.8926 100.737 28.6141C100.737 29.6152 101.106 30.3727 101.846 30.8867C102.585 31.3918 103.528 31.6443 104.673 31.6443Z" fill="#0A223C"/>
<path d="M123.099 6.72643V34.431H119.054V6.72643H123.099Z" fill="#0A223C"/>
<path d="M135.938 34.8368C134.26 34.8368 132.763 34.4084 131.447 33.5517C130.139 32.6859 129.111 31.4549 128.362 29.8587C127.623 28.2534 127.253 26.3279 127.253 24.0824C127.253 21.8368 127.627 19.9159 128.376 18.3196C129.133 16.7233 130.171 15.5013 131.487 14.6536C132.804 13.8059 134.296 13.382 135.965 13.382C137.255 13.382 138.292 13.5985 139.076 14.0313C139.87 14.4552 140.483 14.9512 140.916 15.5194C141.358 16.0875 141.701 16.5881 141.944 17.0209H142.188V6.72643H146.232V34.431H142.282V31.1979H141.944C141.701 31.6398 141.349 32.1448 140.889 32.713C140.438 33.2811 139.816 33.7772 139.022 34.201C138.229 34.6249 137.2 34.8368 135.938 34.8368ZM136.831 31.3873C137.994 31.3873 138.977 31.0806 139.78 30.4674C140.591 29.8451 141.205 28.9839 141.619 27.8836C142.043 26.7834 142.255 25.5028 142.255 24.0418C142.255 22.5988 142.048 21.3363 141.633 20.254C141.218 19.1718 140.609 18.3286 139.807 17.7244C139.004 17.1201 138.012 16.818 136.831 16.818C135.613 16.818 134.599 17.1337 133.787 17.765C132.975 18.3963 132.362 19.2575 131.947 20.3487C131.541 21.44 131.338 22.671 131.338 24.0418C131.338 25.4306 131.546 26.6797 131.961 27.7889C132.376 28.8982 132.989 29.7775 133.8 30.4268C134.621 31.0671 135.631 31.3873 136.831 31.3873Z" fill="#0A223C"/>
<path d="M160.58 34.8503C158.532 34.8503 156.769 34.4129 155.29 33.5382C153.82 32.6544 152.684 31.4143 151.881 29.8181C151.088 28.2128 150.691 26.3325 150.691 24.1771C150.691 22.0487 151.088 20.1729 151.881 18.5496C152.684 16.9263 153.802 15.6592 155.236 14.7483C156.679 13.8374 158.366 13.382 160.296 13.382C161.468 13.382 162.604 13.5759 163.704 13.9637C164.805 14.3515 165.792 14.9602 166.667 15.7899C167.542 16.6196 168.232 17.6973 168.737 19.023C169.242 20.3397 169.494 21.9405 169.494 23.8253V25.2593H152.977V22.2291H165.531C165.531 21.1649 165.314 20.2225 164.881 19.4018C164.449 18.5721 163.84 17.9183 163.055 17.4403C162.28 16.9623 161.369 16.7233 160.323 16.7233C159.186 16.7233 158.194 17.0029 157.347 17.562C156.508 18.1122 155.858 18.8336 155.399 19.7265C154.948 20.6103 154.722 21.5707 154.722 22.6079V24.9752C154.722 26.364 154.966 27.5454 155.453 28.5194C155.949 29.4934 156.639 30.2374 157.522 30.7515C158.406 31.2565 159.439 31.509 160.62 31.509C161.387 31.509 162.086 31.4008 162.717 31.1844C163.348 30.9589 163.894 30.6252 164.354 30.1833C164.814 29.7414 165.165 29.1958 165.409 28.5465L169.237 29.2364C168.931 30.3637 168.381 31.3512 167.587 32.1989C166.802 33.0376 165.815 33.6915 164.624 34.1604C163.443 34.6204 162.095 34.8503 160.58 34.8503Z" fill="#0A223C"/>
<path d="M176.31 13.6526L180.896 21.7421L185.522 13.6526H189.946L183.466 24.0418L190 34.431H185.576L180.896 26.6661L176.229 34.431H171.792L178.258 24.0418L171.873 13.6526H176.31Z" fill="#0A223C"/>
<defs>
<linearGradient id="paint0_linear_477_131" x1="-2.18666e-07" y1="14.4967" x2="33.3154" y2="37.4483" gradientUnits="userSpaceOnUse">
<stop offset="0.390625" stop-color="#7C25D0"/>
<stop offset="1" stop-color="#3231FF"/>
</linearGradient>
<linearGradient id="paint1_linear_477_131" x1="14.0055" y1="5.9323" x2="47.3389" y2="28.973" gradientUnits="userSpaceOnUse">
<stop offset="0.390625" stop-color="#7C25D0"/>
<stop offset="1" stop-color="#3231FF"/>
</linearGradient>
</defs>
</svg>
