<svg width="190" height="49" viewBox="0 0 190 49" fill="none" xmlns="http://www.w3.org/2000/svg">
<path d="M60.3407 11.8081V7.69287H84.8618V11.8081H74.976V39.3769H70.211V11.8081H60.3407Z" fill="#0A223C"/>
<path d="M96.2689 39.8565C93.9277 39.8565 91.9114 39.3563 90.2199 38.3558C88.5387 37.3451 87.2392 35.9269 86.3213 34.1014C85.4137 32.2655 84.9598 30.1151 84.9598 27.6501C84.9598 25.216 85.4137 23.0708 86.3213 21.2143C87.2392 19.3578 88.5181 17.9087 90.158 16.867C91.8082 15.8253 93.7369 15.3045 95.9441 15.3045C97.2849 15.3045 98.5844 15.5262 99.8427 15.9697C101.101 16.4132 102.23 17.1094 103.231 18.0583C104.231 19.0071 105.02 20.2396 105.598 21.7558C106.175 23.2616 106.464 25.0923 106.464 27.2479V28.8878H87.5744V25.4223H101.931C101.931 24.2053 101.684 23.1275 101.189 22.1889C100.694 21.2401 99.9974 20.4923 99.1001 19.9457C98.2131 19.399 97.1714 19.1257 95.975 19.1257C94.6755 19.1257 93.5409 19.4455 92.5714 20.0849C91.6123 20.7141 90.8697 21.5392 90.3437 22.5602C89.828 23.571 89.5701 24.6694 89.5701 25.8555V28.5629C89.5701 30.1512 89.8486 31.5023 90.4055 32.6162C90.9728 33.7301 91.7618 34.581 92.7726 35.1689C93.7833 35.7464 94.9642 36.0352 96.3154 36.0352C97.192 36.0352 97.9914 35.9115 98.7133 35.6639C99.4353 35.4061 100.059 35.0245 100.585 34.5191C101.111 34.0137 101.514 33.3897 101.792 32.6471L106.17 33.4362C105.82 34.7254 105.19 35.8547 104.283 36.8242C103.385 37.7834 102.256 38.5312 100.895 39.0675C99.5436 39.5935 98.0017 39.8565 96.2689 39.8565Z" fill="#0A223C"/>
<path d="M121.17 39.8565C118.87 39.8565 116.89 39.3357 115.23 38.294C113.579 37.2419 112.311 35.7929 111.424 33.9467C110.537 32.1005 110.093 29.9862 110.093 27.6037C110.093 25.1903 110.547 23.0605 111.455 21.2143C112.362 19.3578 113.641 17.9087 115.292 16.867C116.942 15.8253 118.886 15.3045 121.124 15.3045C122.929 15.3045 124.538 15.6397 125.951 16.3101C127.364 16.9701 128.504 17.8984 129.37 19.0948C130.247 20.2912 130.767 21.6887 130.932 23.2874H126.431C126.183 22.1735 125.616 21.2143 124.729 20.4098C123.852 19.6053 122.676 19.2031 121.201 19.2031C119.912 19.2031 118.783 19.5434 117.813 20.2242C116.854 20.8946 116.106 21.8537 115.57 23.1017C115.034 24.3394 114.766 25.8039 114.766 27.4954C114.766 29.2281 115.029 30.7236 115.555 31.9819C116.081 33.2402 116.823 34.2148 117.782 34.9059C118.752 35.5969 119.892 35.9424 121.201 35.9424C122.078 35.9424 122.872 35.7825 123.584 35.4628C124.306 35.1328 124.909 34.6635 125.394 34.055C125.889 33.4465 126.235 32.7142 126.431 31.8581H130.932C130.767 33.3949 130.267 34.7666 129.432 35.9734C128.596 37.1801 127.477 38.1289 126.075 38.82C124.682 39.511 123.048 39.8565 121.17 39.8565Z" fill="#0A223C"/>
<path d="M139.698 31.3167L139.667 25.6698H140.472L149.94 15.6139H155.478L144.68 27.0622H143.952L139.698 31.3167ZM135.444 39.3769V7.69287H140.069V39.3769H135.444ZM150.45 39.3769L141.941 28.0833L145.128 24.8499L156.128 39.3769H150.45Z" fill="#0A223C"/>
<path d="M163.884 7.69287V39.3769H159.258V7.69287H163.884Z" fill="#0A223C"/>
<path d="M172.595 48.288C171.904 48.288 171.275 48.2313 170.708 48.1179C170.141 48.0147 169.718 47.9013 169.439 47.7775L170.553 43.9872C171.399 44.2141 172.152 44.3121 172.812 44.2811C173.472 44.2502 174.055 44.0027 174.56 43.5385C175.076 43.0744 175.53 42.3163 175.922 41.2643L176.494 39.6863L167.8 15.6139H172.75L178.768 34.055H179.016L185.034 15.6139H190L180.207 42.5484C179.753 43.7861 179.176 44.8329 178.474 45.689C177.773 46.5553 176.938 47.2051 175.968 47.6383C174.999 48.0715 173.874 48.288 172.595 48.288Z" fill="#0A223C"/>
<path d="M30.1803 33.4004L35.4619 44.7612C34.9889 45.024 34.5038 45.2748 34.0037 45.5045C33.5035 45.7401 33.0004 45.9547 32.4972 46.148L27.2216 34.8054L19.7044 18.6374L0.316355 27.7079C0.126542 26.5507 0.0180774 25.3935 0 24.2332L39.6107 5.7085C40.4814 6.46689 41.3009 7.29478 42.0571 8.18611L22.6691 17.2536L30.1773 33.3974L30.1803 33.4004Z" fill="url(#paint0_linear_477_280)"/>
<path d="M24.0851 35.8232L18.1225 23L4.12154 29.5476C3.63647 28.9463 2.78984 28.7227 2.06072 29.0641C1.60276 29.2786 1.28037 29.6684 1.14479 30.1216C1.02428 30.5175 1.04235 30.9495 1.22916 31.3514C1.62987 32.2125 2.65125 32.5902 3.51294 32.1883C3.56416 32.1672 3.61236 32.137 3.66057 32.1098C4.29629 31.7351 4.60964 30.9979 4.46803 30.2878L17.7308 24.0877L23.2746 36.0135L28.5231 47.3018C28.7942 47.2504 29.0714 47.19 29.3456 47.1235L24.0881 35.8232H24.0851ZM3.16344 31.445C3.061 31.4934 2.95254 31.5176 2.84709 31.5266C2.48554 31.5538 2.13001 31.3574 1.9643 31.0069C1.92815 30.9284 1.90405 30.8528 1.89501 30.7713C1.82872 30.3845 2.02758 29.9826 2.40118 29.8104C2.8501 29.5989 3.3864 29.7953 3.59429 30.2455C3.8082 30.6987 3.60935 31.2366 3.16043 31.4481L3.16344 31.445Z" fill="url(#paint1_linear_477_280)"/>
<path d="M35.8508 3.39377C35.4501 2.53265 34.4257 2.15798 33.564 2.55984C32.8349 2.90127 32.4613 3.69592 32.6119 4.45431L3.54342 18.051C3.05834 17.4467 2.21171 17.2261 1.48259 17.5645C0.623911 17.9664 0.25031 18.9937 0.651027 19.8578C1.05174 20.722 2.07613 21.0936 2.93481 20.6918C3.66694 20.3534 4.04054 19.5557 3.8899 18.7973L32.9584 5.20062C33.4435 5.80491 34.2901 6.02548 35.0192 5.68708C35.8749 5.28522 36.2515 4.25791 35.8508 3.39377ZM2.58832 19.9455C2.1394 20.157 1.6031 19.9606 1.39521 19.5104C1.1813 19.0571 1.38015 18.5193 1.82907 18.3078C2.278 18.0963 2.81429 18.2927 3.02821 18.7459C3.23911 19.1961 3.04327 19.734 2.59134 19.9455H2.58832ZM34.6758 4.94379C34.2238 5.1553 33.6875 4.9589 33.4766 4.50568C33.2657 4.05547 33.4616 3.51765 33.9105 3.30917C34.3624 3.09766 34.8987 3.29406 35.1096 3.74426C35.3205 4.19748 35.1247 4.73531 34.6758 4.94681V4.94379Z" fill="url(#paint2_linear_477_280)"/>
<path d="M28.3937 0.997804C27.9929 0.136681 26.9716 -0.241004 26.1099 0.160853C25.3777 0.502281 25.0041 1.29995 25.1548 2.05834L6.50188 10.7814C6.0168 10.1801 5.17018 9.9565 4.44105 10.2979C3.58238 10.6998 3.20878 11.7271 3.60949 12.5882C4.01021 13.4493 5.0346 13.824 5.89327 13.4221C6.62541 13.0837 6.99901 12.2861 6.84837 11.5277L25.5013 2.80465C25.9863 3.40593 26.833 3.62952 27.5621 3.28809C28.4208 2.88623 28.7944 1.85893 28.3937 0.997804ZM5.54679 12.6789C5.09787 12.8904 4.56157 12.694 4.35368 12.2407C4.14278 11.7905 4.33862 11.2527 4.78754 11.0442C5.23947 10.8297 5.77577 11.0291 5.98667 11.4793C6.19758 11.9326 6.00174 12.4704 5.5498 12.6819L5.54679 12.6789ZM27.2186 2.54178C26.7697 2.75329 26.2334 2.55689 26.0195 2.10669C25.8086 1.65347 26.0044 1.11564 26.4564 0.904138C26.9053 0.692634 27.4416 0.889031 27.6555 1.34225C27.8664 1.79245 27.6675 2.33028 27.2186 2.53876V2.54178Z" fill="url(#paint3_linear_477_280)"/>
<path d="M18.5685 36.576L15.5496 30.0889L7.02606 34.0742L6.34514 34.3915C5.86007 33.7872 5.01344 33.5666 4.28432 33.905C3.42865 34.3069 3.05204 35.3342 3.45275 36.1983C3.85347 37.0594 4.87786 37.4341 5.73955 37.0322C6.46867 36.6908 6.84227 35.8962 6.69163 35.1378L8.00827 34.5214L15.1549 31.1826L17.6646 36.582L22.8498 47.7313C23.1541 47.7494 23.4554 47.7585 23.7658 47.7585L18.5685 36.579V36.576ZM5.39005 36.2859C4.94113 36.4974 4.40483 36.301 4.19694 35.8508C3.98604 35.3976 4.18188 34.8598 4.6308 34.6483C5.08274 34.4368 5.61903 34.6332 5.82994 35.0864C6.04084 35.5366 5.845 36.0744 5.39307 36.2829L5.39005 36.2859Z" fill="url(#paint4_linear_477_280)"/>
<path d="M44.2534 11.2351C44.0244 10.7426 43.5876 10.4072 43.0995 10.2833C42.7319 10.1957 42.3372 10.2229 41.9696 10.3981C41.2375 10.7396 40.8639 11.5342 41.0145 12.2956L27.0166 18.8371L32.952 31.6059L38.2336 42.9667C38.4566 42.7975 38.6825 42.6253 38.8965 42.447L33.6178 31.0953L28.1042 19.236L41.358 13.0359C41.7557 13.5284 42.3914 13.7701 43.0121 13.6523C43.1507 13.6311 43.2863 13.5858 43.4188 13.5223C44.2775 13.1205 44.6511 12.0932 44.2504 11.2321L44.2534 11.2351ZM43.0784 12.776C42.6264 12.9906 42.0901 12.7942 41.8792 12.344C41.6683 11.8907 41.8642 11.3529 42.3161 11.1414C42.5812 11.0175 42.8795 11.0357 43.1205 11.1686C43.2863 11.2562 43.4249 11.3982 43.5092 11.5825C43.7201 12.0327 43.5243 12.5675 43.0784 12.776Z" fill="url(#paint5_linear_477_280)"/>
<path d="M46.5192 16.0603C46.1185 15.1992 45.0941 14.8245 44.2324 15.2263C43.5003 15.5648 43.1297 16.3624 43.2773 17.1208L42.3433 17.5559L34.088 21.4204L37.0496 27.7897L42.3011 39.087C42.497 38.8513 42.6868 38.6157 42.8706 38.3679L37.6251 27.0917L35.1726 21.8162L42.0541 18.5983L43.6208 17.8641C44.1059 18.4654 44.9555 18.689 45.6816 18.3475C46.5403 17.9457 46.9169 16.9214 46.5162 16.0573L46.5192 16.0603ZM45.3381 17.6073C44.8892 17.8188 44.3529 17.6194 44.145 17.1692C43.9341 16.719 44.13 16.1811 44.5789 15.9666C45.0308 15.7551 45.5671 15.9545 45.778 16.4047C45.9889 16.8549 45.7931 17.3927 45.3412 17.6073H45.3381Z" fill="url(#paint6_linear_477_280)"/>
<path d="M47.5949 21.4412C47.1942 20.58 46.1698 20.2024 45.3081 20.6042C44.576 20.9456 44.2054 21.7433 44.353 22.5017L41.1503 23.9973L45.6606 33.6903C45.8113 33.3579 45.9589 33.0195 46.0915 32.6781L42.238 24.3962L44.6965 23.245C45.1816 23.8463 46.0312 24.0699 46.7573 23.7284C47.616 23.3266 47.9896 22.2993 47.5919 21.4381L47.5949 21.4412ZM46.4139 22.9851C45.965 23.1966 45.4287 23.0002 45.2208 22.55C45.0099 22.0968 45.2057 21.559 45.6546 21.3475C46.1066 21.136 46.6429 21.3324 46.8538 21.7856C47.0647 22.2358 46.8688 22.7736 46.4169 22.9821L46.4139 22.9851Z" fill="url(#paint7_linear_477_280)"/>
<path d="M12.9797 37.1734L9.777 38.6691C9.29192 38.0678 8.44529 37.8442 7.71617 38.1856C6.85749 38.5875 6.48389 39.6148 6.88461 40.4759C7.28532 41.337 8.30971 41.7117 9.16839 41.3098C9.90053 40.9714 10.2741 40.1738 10.1235 39.4154L12.582 38.2642L16.4355 46.5491C16.785 46.6669 17.1375 46.7697 17.49 46.8694L12.9797 37.1704V37.1734ZM8.82191 40.5696C8.37298 40.7811 7.83669 40.5847 7.6288 40.1315C7.41789 39.6813 7.61373 39.1434 8.06265 38.935C8.51459 38.7204 9.05089 38.9199 9.26179 39.3701C9.47269 39.8203 9.27685 40.3611 8.82492 40.5726L8.82191 40.5696Z" fill="url(#paint8_linear_477_280)"/>
<defs>
<linearGradient id="paint0_linear_477_280" x1="-2.13774e-07" y1="13.1224" x2="37.2081" y2="33.1872" gradientUnits="userSpaceOnUse">
<stop offset="0.390625" stop-color="#7C25D0"/>
<stop offset="1" stop-color="#3231FF"/>
</linearGradient>
<linearGradient id="paint1_linear_477_280" x1="1.06851" y1="27.4553" x2="24.7425" y2="41.7387" gradientUnits="userSpaceOnUse">
<stop offset="0.390625" stop-color="#7C25D0"/>
<stop offset="1" stop-color="#3231FF"/>
</linearGradient>
<linearGradient id="paint2_linear_477_280" x1="0.490082" y1="5.78189" x2="20.8128" y2="26.064" gradientUnits="userSpaceOnUse">
<stop offset="0.390625" stop-color="#7C25D0"/>
<stop offset="1" stop-color="#3231FF"/>
</linearGradient>
<linearGradient id="paint3_linear_477_280" x1="3.44855" y1="2.49032" x2="18.3931" y2="16.8126" gradientUnits="userSpaceOnUse">
<stop offset="0.390625" stop-color="#7C25D0"/>
<stop offset="1" stop-color="#3231FF"/>
</linearGradient>
<linearGradient id="paint4_linear_477_280" x1="3.2923" y1="33.3283" x2="20.4715" y2="43.6495" gradientUnits="userSpaceOnUse">
<stop offset="0.390625" stop-color="#7C25D0"/>
<stop offset="1" stop-color="#3231FF"/>
</linearGradient>
<linearGradient id="paint5_linear_477_280" x1="27.0166" y1="16.2357" x2="45.4791" y2="21.3232" gradientUnits="userSpaceOnUse">
<stop offset="0.390625" stop-color="#7C25D0"/>
<stop offset="1" stop-color="#3231FF"/>
</linearGradient>
<linearGradient id="paint6_linear_477_280" x1="34.088" y1="19.469" x2="47.4754" y2="23.1067" gradientUnits="userSpaceOnUse">
<stop offset="0.390625" stop-color="#7C25D0"/>
<stop offset="1" stop-color="#3231FF"/>
</linearGradient>
<linearGradient id="paint7_linear_477_280" x1="41.1503" y1="22.872" x2="48.2165" y2="24.6976" gradientUnits="userSpaceOnUse">
<stop offset="0.390625" stop-color="#7C25D0"/>
<stop offset="1" stop-color="#3231FF"/>
</linearGradient>
<linearGradient id="paint8_linear_477_280" x1="6.72366" y1="38.9486" x2="15.959" y2="44.2642" gradientUnits="userSpaceOnUse">
<stop offset="0.390625" stop-color="#7C25D0"/>
<stop offset="1" stop-color="#3231FF"/>
</linearGradient>
</defs>
</svg>
