<svg width="190" height="51" viewBox="0 0 190 51" fill="none" xmlns="http://www.w3.org/2000/svg">
<path d="M35.8894 24.4905C35.8894 23.7653 35.8635 23.0512 35.834 22.3446C35.8081 21.7904 35.7674 21.2474 35.7268 20.7044C35.638 19.5515 35.5161 18.4209 35.346 17.3349C35.2573 16.7696 35.1501 16.2191 35.0429 15.6724C34.7361 14.1178 34.3517 12.6451 33.8971 11.269C33.7714 10.8896 33.6383 10.5177 33.5016 10.1532C33.2059 9.36478 32.8843 8.61723 32.5442 7.90316C32.3705 7.53868 32.1931 7.17793 32.0082 6.83577C29.7054 2.58852 26.5562 0 23.0225 0C17.4521 0 12.828 6.42666 11.002 15.6724C11.9002 14.9807 12.8317 14.3038 13.8186 13.6567C15.6668 6.92875 19.1339 2.27239 23.0188 2.27239C25.4584 2.27239 27.7353 4.11708 29.5502 7.15189C29.7498 7.4829 29.9383 7.83249 30.1231 8.18953C30.478 8.87013 30.818 9.58793 31.1285 10.3615C31.269 10.7111 31.3947 11.0793 31.524 11.4438C31.7754 12.1541 32.0119 12.8905 32.2226 13.6604C32.3705 14.1996 32.5036 14.7538 32.6329 15.3191C32.8658 16.3642 33.0617 17.4502 33.2169 18.5734C33.2909 19.0977 33.3611 19.6259 33.4129 20.1614C33.5533 21.5673 33.6272 23.0177 33.6272 24.4942C33.6272 29.3291 32.8362 33.8515 31.524 37.5446C31.3947 37.9091 31.269 38.2773 31.1285 38.6269C30.818 39.4042 30.4743 40.122 30.1194 40.8063C29.9383 41.1559 29.7535 41.4981 29.5576 41.8217C28.3267 43.8783 26.8851 45.3697 25.3253 46.1358C24.793 45.4143 23.9798 44.9123 23.0188 44.9123C21.4109 44.9123 20.1024 46.2288 20.1024 47.8504C20.1024 49.4719 21.4109 50.7848 23.0188 50.7848C24.4345 50.7848 25.5619 49.7471 25.828 48.4045C28.2121 47.4227 30.3338 45.2358 32.0046 42.1564C32.1894 41.8142 32.3631 41.4572 32.5368 41.0964C32.8806 40.3823 33.2022 39.6311 33.4979 38.8389C33.6346 38.4744 33.7677 38.1025 33.8934 37.7232C35.1538 33.9297 35.8857 29.4109 35.8857 24.4979L35.8894 24.4905Z" fill="url(#paint0_linear_477_306)"/>
<path d="M18.3024 37.9275C11.5899 39.6829 5.84581 38.9874 3.90154 35.5993C2.68175 33.4719 3.1327 30.5673 4.83671 27.4692C5.02153 27.1308 5.22852 26.7924 5.44291 26.4539C5.8532 25.8031 6.29676 25.1485 6.81055 24.4939C7.03972 24.1964 7.29477 23.9026 7.54242 23.6088C8.03034 23.0323 8.54413 22.4596 9.09858 21.8905C9.49039 21.4926 9.90068 21.0984 10.3221 20.7041C11.1057 19.9752 11.9411 19.2648 12.8282 18.5694C13.2459 18.2458 13.6598 17.9185 14.0997 17.6024C15.2419 16.7767 16.4506 15.9883 17.7221 15.2519C21.8842 12.8345 26.1682 11.265 30.005 10.5584C29.6834 9.78105 29.336 9.0707 28.97 8.40869C25.0741 9.20831 20.8196 10.8298 16.591 13.2845C15.9664 13.649 15.3639 14.0246 14.7724 14.4039C14.3067 14.7015 13.8595 15.0102 13.4159 15.3188C12.4696 15.9734 11.5566 16.6429 10.7028 17.3346C10.2592 17.6954 9.84154 18.0598 9.42386 18.428C8.23733 19.4731 7.1617 20.5442 6.20435 21.6302C5.93822 21.9315 5.68687 22.2327 5.43921 22.534C4.90694 23.1848 4.42272 23.8394 3.98286 24.4939C3.75738 24.8287 3.5356 25.1597 3.33231 25.4944C0.829891 29.6226 0.179337 33.6653 1.94618 36.7411C3.64649 39.7052 7.23563 41.1705 11.7932 41.1705C14.6911 41.1705 17.9919 40.5569 21.4369 39.3779C20.3946 38.9391 19.3522 38.4667 18.3024 37.9312V37.9275Z" fill="url(#paint1_linear_477_306)"/>
<path d="M3.33231 23.4906C3.79435 22.8286 4.28966 22.1665 4.83302 21.512C3.68716 19.4293 3.12532 17.4395 3.2399 15.7064C4.1529 15.6023 4.98457 15.089 5.44661 14.2783C5.83842 13.5977 5.94192 12.8055 5.73862 12.0505C5.53532 11.2918 5.0511 10.6595 4.37837 10.2653C3.93481 10.0087 3.43211 9.87109 2.92571 9.87109C1.88335 9.87109 0.911215 10.4364 0.393729 11.3402C0.00191831 12.0208 -0.101579 12.8129 0.101719 13.5679C0.253269 14.1407 0.60442 14.6018 1.04059 14.9812C0.693132 17.5474 1.51741 20.4929 3.33231 23.4868V23.4906Z" fill="url(#paint2_linear_477_306)"/>
<path d="M36.6254 18.4251C36.7695 19.552 36.8878 20.7012 36.9506 21.8876C41.8187 26.8601 44.0919 32.2119 42.1477 35.6001C40.9242 37.7274 38.2 38.7836 34.6811 38.8506C34.3891 39.6502 34.0712 40.4126 33.7311 41.1416C33.9049 41.1453 34.086 41.1639 34.256 41.1639C38.8136 41.1639 42.4027 39.6985 44.103 36.7344C46.8901 31.8809 43.6706 24.6361 36.6254 18.4214V18.4251Z" fill="url(#paint3_linear_477_306)"/>
<path d="M23.0227 36.3402C22.5348 36.1393 22.0468 35.9385 21.5552 35.7154C20.2763 35.1352 18.9937 34.4769 17.7221 33.7368C13.5601 31.3193 10.067 28.3663 7.54244 25.3799C7.03605 26.0493 6.59618 26.7076 6.20807 27.3585C8.84355 30.3524 12.3662 33.2496 16.5948 35.7079C17.2231 36.0724 17.8478 36.4034 18.4762 36.7307C18.9641 36.9873 19.452 37.2253 19.9399 37.4596C20.9749 37.958 22.0062 38.408 23.0301 38.806C23.5623 39.0142 24.0909 39.2002 24.6158 39.3824C26.1054 39.8919 27.5655 40.2936 28.9775 40.58C29.3397 39.918 29.6871 39.2076 30.0087 38.434C29.2695 38.2964 28.5191 38.1365 27.7503 37.9357C27.2106 37.7943 26.6672 37.6344 26.1202 37.4633C25.1037 37.1435 24.0724 36.7716 23.0301 36.3476L23.0227 36.3402Z" fill="url(#paint4_linear_477_306)"/>
<path d="M45.6514 11.3478C45.1339 10.4403 44.1618 9.87875 43.1194 9.87875C42.7905 9.87875 42.4689 9.95685 42.1584 10.0647C40.1217 8.49524 37.1942 7.75141 33.7271 7.83323C34.0671 8.5659 34.385 9.32832 34.6807 10.1317C37.0574 10.1763 39.0609 10.6858 40.4987 11.6639C40.1439 12.4896 40.118 13.4491 40.5985 14.2859C41.116 15.1934 42.0881 15.755 43.1305 15.755C43.6369 15.755 44.1396 15.6174 44.5832 15.3608C45.9767 14.55 46.4572 12.7499 45.6514 11.3478Z" fill="url(#paint5_linear_477_306)"/>
<path d="M23.0227 30.4486C26.1318 30.4486 28.6522 27.9126 28.6522 24.7844C28.6522 21.6561 26.1318 19.1201 23.0227 19.1201C19.9136 19.1201 17.3932 21.6561 17.3932 24.7844C17.3932 27.9126 19.9136 30.4486 23.0227 30.4486Z" fill="url(#paint6_linear_477_306)"/>
<path d="M61.0844 43.6913V5.2085H85.5751V10.2068H67.0432V21.932H83.8202V26.9115H67.0432V43.6913H61.0844Z" fill="#0A223C"/>
<path d="M97.6631 5.2085V43.6913H91.8971V5.2085H97.6631Z" fill="#0A223C"/>
<path d="M117.643 44.2738C114.725 44.2738 112.211 43.6663 110.103 42.4512C108.007 41.2235 106.388 39.5011 105.243 37.2838C104.112 35.054 103.546 32.4421 103.546 29.4482C103.546 26.4918 104.112 23.8862 105.243 21.6313C106.388 19.3765 107.982 17.6165 110.026 16.3512C112.083 15.086 114.487 14.4534 117.238 14.4534C118.909 14.4534 120.529 14.7227 122.098 15.2614C123.666 15.8 125.074 16.6456 126.321 17.7981C127.568 18.9506 128.551 20.4475 129.271 22.289C129.991 24.1179 130.351 26.3415 130.351 28.9596V30.9514H106.805V26.7423H124.701C124.701 25.2642 124.392 23.9551 123.775 22.8151C123.158 21.6627 122.29 20.7545 121.172 20.0905C120.066 19.4266 118.768 19.0946 117.277 19.0946C115.657 19.0946 114.243 19.483 113.034 20.2596C111.839 21.0238 110.913 22.0259 110.257 23.2661C109.614 24.4938 109.293 25.8279 109.293 27.2685V30.5568C109.293 32.486 109.64 34.127 110.334 35.4799C111.041 36.8328 112.025 37.8663 113.285 38.5803C114.545 39.2818 116.017 39.6326 117.701 39.6326C118.794 39.6326 119.79 39.4823 120.69 39.1816C121.59 38.8684 122.368 38.4049 123.023 37.7911C123.679 37.1773 124.18 36.4194 124.527 35.5175L129.985 36.4758C129.548 38.0417 128.763 39.4134 127.632 40.5909C126.514 41.7559 125.106 42.6641 123.409 43.3155C121.725 43.9544 119.803 44.2738 117.643 44.2738Z" fill="#0A223C"/>
<path d="M140.067 14.8292L146.604 26.0659L153.2 14.8292H159.505L150.268 29.2603L159.583 43.6913H153.277L146.604 32.9056L139.951 43.6913H133.626L142.844 29.2603L133.742 14.8292H140.067Z" fill="#0A223C"/>
<path d="M176.193 44.2738C173.416 44.2738 170.992 43.6537 168.923 42.4136C166.853 41.1734 165.246 39.4384 164.102 37.2086C162.957 34.9788 162.385 32.3732 162.385 29.3918C162.385 26.3979 162.957 23.7797 164.102 21.5374C165.246 19.2951 166.853 17.5538 168.923 16.3137C170.992 15.0735 173.416 14.4534 176.193 14.4534C178.97 14.4534 181.393 15.0735 183.463 16.3137C185.533 17.5538 187.14 19.2951 188.284 21.5374C189.428 23.7797 190 26.3979 190 29.3918C190 32.3732 189.428 34.9788 188.284 37.2086C187.14 39.4384 185.533 41.1734 183.463 42.4136C181.393 43.6537 178.97 44.2738 176.193 44.2738ZM176.212 39.5574C178.012 39.5574 179.503 39.0939 180.686 38.1669C181.869 37.2399 182.743 36.006 183.308 34.4652C183.887 32.9244 184.176 31.227 184.176 29.373C184.176 27.5315 183.887 25.8404 183.308 24.2996C182.743 22.7462 181.869 21.4998 180.686 20.5603C179.503 19.6208 178.012 19.151 176.212 19.151C174.399 19.151 172.895 19.6208 171.7 20.5603C170.517 21.4998 169.636 22.7462 169.058 24.2996C168.492 25.8404 168.209 27.5315 168.209 29.373C168.209 31.227 168.492 32.9244 169.058 34.4652C169.636 36.006 170.517 37.2399 171.7 38.1669C172.895 39.0939 174.399 39.5574 176.212 39.5574Z" fill="#0A223C"/>
<defs>
<linearGradient id="paint0_linear_477_306" x1="11.002" y1="25.3905" x2="35.8894" y2="25.3905" gradientUnits="userSpaceOnUse">
<stop stop-color="#4647B1"/>
<stop offset="1" stop-color="#2B00D8"/>
</linearGradient>
<linearGradient id="paint1_linear_477_306" x1="0.94812" y1="14.415" x2="28.3377" y2="27.011" gradientUnits="userSpaceOnUse">
<stop offset="0.390625" stop-color="#7C25D0"/>
<stop offset="1" stop-color="#3231FF"/>
</linearGradient>
<linearGradient id="paint2_linear_477_306" x1="-2.96862e-08" y1="12.368" x2="6.35531" y2="13.7811" gradientUnits="userSpaceOnUse">
<stop offset="0.390625" stop-color="#7C25D0"/>
<stop offset="1" stop-color="#3231FF"/>
</linearGradient>
<linearGradient id="paint3_linear_477_306" x1="33.7311" y1="22.5908" x2="45.8986" y2="25.7453" gradientUnits="userSpaceOnUse">
<stop offset="0.390625" stop-color="#7C25D0"/>
<stop offset="1" stop-color="#3231FF"/>
</linearGradient>
<linearGradient id="paint4_linear_477_306" x1="6.20807" y1="28.1666" x2="22.5894" y2="41.4667" gradientUnits="userSpaceOnUse">
<stop offset="0.390625" stop-color="#7C25D0"/>
<stop offset="1" stop-color="#3231FF"/>
</linearGradient>
<linearGradient id="paint5_linear_477_306" x1="33.7271" y1="9.28059" x2="42.2568" y2="16.1511" gradientUnits="userSpaceOnUse">
<stop offset="0.390625" stop-color="#7C25D0"/>
<stop offset="1" stop-color="#3231FF"/>
</linearGradient>
<linearGradient id="paint6_linear_477_306" x1="17.3932" y1="21.197" x2="27.5526" y2="26.4326" gradientUnits="userSpaceOnUse">
<stop offset="0.390625" stop-color="#7C25D0"/>
<stop offset="1" stop-color="#3231FF"/>
</linearGradient>
</defs>
</svg>
