<svg width="50" height="39" viewBox="0 0 50 39" fill="none" xmlns="http://www.w3.org/2000/svg">
<path d="M-9.53674e-06 27.4989C-9.53674e-06 19.762 2.99903 12.319 8.23059 7.0852C10.5781 4.73378 13.2897 2.49614 16.2983 0.448135C16.854 0.0499115 17.5439 -0.0923119 18.2242 0.059391C18.9237 0.211098 19.5273 0.647243 19.8818 1.26354C20.1214 1.65229 20.2363 2.07895 20.2363 2.50562C20.2363 3.27363 19.8531 4.01319 19.2111 4.47778C15.6467 7.02831 11.1721 11.058 10.0894 15.7513C10.0223 16.0547 10.099 16.3771 10.2906 16.6236C10.4918 16.8701 10.7889 17.0124 11.1051 17.0124C17.2373 17.0124 22.2197 21.9427 22.2197 28.0014C22.2197 30.9976 21.022 33.8041 18.847 35.8901C16.7582 37.9001 14.0179 39 11.1051 39C10.9997 39 10.8847 39 10.7697 38.9905C4.82912 38.8199 -9.53674e-06 33.6619 -9.53674e-06 27.4989Z" fill="#EAEAEA"/>
<path d="M27.7803 27.4989C27.7803 19.762 30.7793 12.319 36.0013 7.0852C38.3584 4.73378 41.0699 2.50563 44.0786 0.448135C44.6343 0.0499115 45.3242 -0.0923119 46.0045 0.059391C46.7039 0.211098 47.298 0.647243 47.6621 1.26354C47.892 1.65229 48.0166 2.07895 48.0166 2.50562C48.0166 3.27363 47.6333 4.01319 46.9914 4.47778C43.427 7.02831 38.9524 11.058 37.8697 15.7513C37.8026 16.0547 37.8793 16.3771 38.0709 16.6236C38.2721 16.8701 38.5691 17.0124 38.8853 17.0124C45.0176 17.0124 50 21.9427 50 28.0014C50 30.9976 48.8023 33.8041 46.6273 35.8901C44.5289 37.9001 41.7981 39 38.8853 39C38.7704 39 38.6554 39 38.5404 38.9905C32.6094 38.8199 27.7803 33.6619 27.7803 27.4989Z" fill="#EAEAEA"/>
</svg>
