<svg width="62" height="107" viewBox="0 0 62 107" fill="none" xmlns="http://www.w3.org/2000/svg">
<path d="M45.2856 105.666C44.5766 105.785 43.8702 105.899 43.1504 105.961C42.4254 106.02 41.6977 106.072 40.9754 106.152C39.5464 106.307 38.0929 106.287 36.6552 106.288C35.2305 106.288 33.8056 106.263 32.3806 106.212C30.846 106.159 29.3056 106.011 27.7808 105.859C24.8958 105.576 22.0256 105.158 19.173 104.625C17.7493 104.359 16.3358 104.06 14.9275 103.737C13.5321 103.414 12.152 103.021 10.7745 102.622C7.85986 101.766 4.93173 100.831 2.17372 99.5513C1.85185 99.3993 1.52217 99.2499 1.20287 99.0927C0.485849 98.7526 0.00282499 97.8449 0.188524 97.0584C0.267395 96.7265 0.414314 96.4282 0.629278 96.1633C0.890875 95.8434 1.47862 95.5215 1.89883 95.5398C1.98235 95.5419 2.07109 95.5466 2.1546 95.5487C2.44677 95.5365 2.8305 95.5628 3.15963 95.6208C3.31876 95.6147 3.47524 95.6007 3.63172 95.5867C3.82991 95.5672 4.0202 95.5373 4.21316 95.5153C4.97388 95.3176 5.71585 95.0391 6.4314 94.7086C7.52395 94.154 8.5478 93.4615 9.48237 92.673C10.6424 91.6379 11.6712 90.46 12.5532 89.1839C14.244 86.5956 15.4475 83.6894 16.4421 80.7713C16.5575 80.4314 16.6676 80.0889 16.7751 79.7516C16.8647 79.4641 16.9333 79.1531 17.0804 78.8939C17.1837 78.7107 17.3077 78.4985 17.4422 78.3177C17.6783 77.6535 17.9378 76.9943 18.1843 76.3353C18.2741 76.0869 18.5961 75.8292 18.8409 75.7546C19.0857 75.6801 19.3258 75.6813 19.5716 75.7633C20.1023 75.9401 20.4423 76.4912 20.3361 77.0502C20.2071 77.7216 20.1016 78.3981 19.9439 79.0618C19.9691 79.3408 19.9556 79.6984 19.9178 79.9204C19.8697 80.1634 19.785 80.4013 19.7187 80.6418C19.5807 81.1201 19.4427 81.5985 19.2916 82.0769C18.9692 83.1278 18.6259 84.1684 18.2434 85.1962C17.5605 87.0321 16.7232 88.7985 15.6556 90.4515C14.0244 92.9715 11.9325 95.2387 9.35088 96.7965C11.3795 96.5598 13.3892 96.2162 15.3799 95.7527C19.6115 94.7667 23.7587 93.2255 27.648 91.297C35.507 87.3953 42.3827 81.8452 47.7474 74.9527C50.3831 71.568 52.5997 67.9119 54.3936 63.8331C56.1232 59.9112 57.2581 56.0216 57.9857 51.6648C58.7031 47.3551 58.8799 43.3904 58.5871 38.9929C58.2942 34.5953 57.5837 30.6231 56.3634 26.4712C55.1591 22.3662 53.5403 18.3369 51.5454 14.6881C49.5111 10.9743 47.1221 7.30711 44.2693 4.17239C43.5548 3.39133 42.8248 2.62863 42.0688 1.89218C41.2341 1.07793 42.4002 -0.259925 43.2791 0.530577C46.5876 3.50596 49.5983 6.86151 52.0865 10.5516C54.5879 14.2547 56.6296 18.3233 58.1373 22.5256C61.1791 30.9952 62.2575 40.1369 61.2864 49.0824C60.3054 58.114 57.0599 66.7784 51.8343 74.2076C46.6267 81.6133 39.6159 87.7017 31.6258 91.9356C25.0611 95.4146 17.8496 97.6712 10.4591 98.3893C10.5323 98.4123 10.6029 98.4406 10.6761 98.4637C12.8332 99.1812 15.0107 99.8307 17.1906 100.449C19.4098 101.08 21.6572 101.64 23.9146 102.128C26.1903 102.617 28.484 103.057 30.7876 103.411C33.0598 103.763 35.3294 104.106 37.6114 104.346C38.2537 104.415 38.9012 104.474 39.5487 104.532C39.7105 104.547 39.8802 104.559 40.0421 104.574C40.0525 104.579 40.3057 104.593 40.1361 104.581C40.2614 104.591 40.3736 104.6 40.499 104.623C40.8229 104.678 41.1493 104.716 41.4783 104.761C42.1051 104.848 42.7394 104.881 43.3685 104.924C44.0211 104.972 44.6662 105.062 45.3189 105.136C45.6323 105.174 45.5566 105.605 45.2881 105.648L45.2856 105.666Z" fill="#545454"/>
</svg>
