<svg width="143" height="120" viewBox="0 0 143 120" fill="none" xmlns="http://www.w3.org/2000/svg">
<path d="M17.8341 16.5163C22.1213 29.8841 30.3388 41.786 40.9953 50.8794C45.7665 54.9511 51.0131 58.4781 56.6065 61.3268C57.0385 64.7337 58.8334 67.6715 61.2039 70.1092C63.8363 72.8259 67.0696 74.9638 70.214 77.0359C73.2656 79.0467 76.4049 80.9103 79.628 82.6311C92.4953 89.499 106.693 94.0409 121.18 95.7582C121.484 95.794 121.793 95.8255 122.101 95.8651C120.826 96.1708 119.545 96.4726 118.256 96.7421C117.29 96.94 116.324 97.1216 115.353 97.2911C115.483 97.269 115.613 97.247 115.743 97.2249C114.809 97.3887 113.884 97.5685 112.95 97.7323C111.783 97.9268 110.607 98.0808 109.441 98.2834C109.547 98.2624 109.653 98.2496 109.758 98.2286C108.909 98.3763 108.056 98.5121 107.198 98.6357C107.023 98.6639 106.848 98.6838 106.682 98.7443C106.59 98.777 106.501 98.8055 106.413 98.8421C106.312 98.8752 106.215 98.9122 106.114 98.9452C106.07 98.9595 106.022 98.978 105.977 98.9922C105.973 98.9964 105.969 99.0007 105.961 99.0011C105.961 99.0011 105.949 99.0057 105.941 99.006C105.685 99.0459 105.433 99.0897 105.185 99.1375C104.958 99.1802 104.755 99.316 104.555 99.423C104.259 99.5833 104.285 100.069 104.59 100.207C104.782 100.297 104.979 100.407 105.185 100.439C105.437 100.481 105.695 100.49 105.949 100.504C105.974 100.503 106.003 100.505 106.031 100.508C106.044 100.512 106.064 100.515 106.077 100.519C106.172 100.535 106.263 100.564 106.354 100.584C106.619 100.646 106.876 100.717 107.146 100.73C107.954 100.764 108.768 100.757 109.575 100.758C110.373 100.76 111.172 100.7 111.969 100.653C112.765 100.606 113.56 100.542 114.355 100.478C115.966 100.338 117.564 100.1 119.157 99.8419C120.851 99.5587 122.55 99.2713 124.222 98.8663C125.984 98.441 127.753 97.9991 129.467 97.3958C130.099 97.1757 130.546 96.6362 130.607 95.9623C130.631 95.6707 130.587 95.4106 130.461 95.146C130.298 94.793 130.059 94.5661 129.726 94.3638C129.28 94.0887 128.846 93.8089 128.408 93.5253C126.821 92.3302 125.318 91.0087 123.906 89.6136C123.191 88.9041 122.461 88.2117 121.762 87.4852C121.054 86.7509 120.319 86.0301 119.619 85.2872C119.232 84.8704 118.85 84.4492 118.475 84.0195C118.13 83.6254 117.789 83.2188 117.424 82.8459C117.029 82.3189 116.618 81.809 116.23 81.2735C116.021 80.9879 115.8 80.7152 115.591 80.4379C115.543 80.3704 115.491 80.3072 115.443 80.2397C115.378 80.1484 115.29 79.9968 115.205 79.9268C115.174 79.8913 115.144 79.8558 115.114 79.8203C115.084 79.793 115.062 79.7571 115.037 79.7337C114.972 79.6587 114.907 79.5838 114.842 79.5089C114.67 79.3036 114.272 79.2924 114.066 79.4406C113.831 79.6024 113.701 79.8987 113.791 80.1772C114.019 80.8876 114.328 81.5943 114.677 82.2585C115.003 82.8868 115.33 83.5232 115.712 84.1245C115.672 84.0403 115.636 83.96 115.599 83.8716C116.098 84.9875 116.77 86.0181 117.456 87.0235C117.772 87.4926 118.087 87.9536 118.426 88.4053C118.843 88.96 119.284 89.4973 119.745 90.0214C120.124 90.455 120.516 90.884 120.907 91.3047C121.301 91.7213 121.728 92.1118 122.158 92.4982C123.003 93.2715 123.878 94.0025 124.78 94.7037C124.806 94.7272 124.836 94.7464 124.865 94.7655C111.717 93.3414 98.7827 89.7918 86.7907 84.2116C80.5817 81.3245 74.6083 77.9317 68.9807 74.0244C64.8853 71.1754 59.8901 67.4081 58.6744 62.3739C61.7507 63.8269 64.9161 65.0713 68.1581 66.1037C71.2174 67.0785 74.4988 68.0764 77.7366 67.5208C80.9012 66.9766 83.2901 64.5223 83.0951 61.1992C82.8707 57.3943 79.8664 54.7839 76.6959 53.1427C71.6404 50.52 64.2605 48.466 59.4787 52.7281C57.6194 54.3815 56.694 56.7961 56.5519 59.2459C52.3535 57.0317 48.363 54.4278 44.6442 51.4845C34.391 43.3721 25.9772 32.6863 20.751 20.6777C20.1092 19.2037 19.5156 17.7113 18.9665 16.2046C18.7108 15.5077 17.6282 15.8336 17.8601 16.5479L17.8341 16.5163ZM58.505 58.4234C58.9344 55.7113 60.6663 53.4864 63.31 52.6377C65.905 51.7992 68.7645 52.2303 71.3236 52.998C72.7877 53.4371 74.2053 54.0297 75.5737 54.7105C77.1932 55.5194 78.8288 56.5076 79.941 57.9732C81.5831 60.1359 81.8855 63.573 79.2385 65.0932C76.7632 66.5117 73.392 65.706 70.8346 64.9793C67.6847 64.0861 64.6029 62.9731 61.6023 61.66C60.5172 61.1838 59.4435 60.6866 58.385 60.1641C58.3766 59.5996 58.4169 59.0248 58.5093 58.4273L58.505 58.4234Z" fill="#545454"/>
</svg>
