<svg width="25" height="89" viewBox="0 0 25 89" fill="none" xmlns="http://www.w3.org/2000/svg">
<path d="M3.66214 11.0415L3.66214 0.995117L6.39633 0.995117L6.39633 11.0415L3.66214 11.0415Z" fill="#CECECE"/>
<path d="M3.06371e-05 7.39078L3.05176e-05 4.65674L10.047 4.65674L10.047 7.39078L3.06371e-05 7.39078Z" fill="#CECECE"/>
<path d="M3.66214 28.8784L3.66214 18.832L6.39633 18.832L6.39633 28.8784L3.66214 28.8784Z" fill="#CECECE"/>
<path d="M3.06371e-05 25.2265L3.05176e-05 22.4924L10.047 22.4924L10.047 25.2265L3.06371e-05 25.2265Z" fill="#CECECE"/>
<path d="M3.66214 46.7236L3.66214 36.6772L6.39633 36.6772L6.39633 46.7236L3.66214 46.7236Z" fill="#CECECE"/>
<path d="M3.06371e-05 43.07L3.05176e-05 40.3359L10.047 40.3359L10.047 43.07L3.06371e-05 43.07Z" fill="#CECECE"/>
<path d="M3.66214 64.5581L3.66214 54.5117L6.39633 54.5117L6.39633 64.5581L3.66214 64.5581Z" fill="#CECECE"/>
<path d="M3.06371e-05 60.8966L3.05176e-05 58.1626L10.047 58.1626L10.047 60.8966L3.06371e-05 60.8966Z" fill="#CECECE"/>
<path d="M3.66214 82.3991L3.66214 72.3528L6.39633 72.3528L6.39633 82.3991L3.66214 82.3991Z" fill="#CECECE"/>
<path d="M3.06371e-05 78.7397L3.05176e-05 76.0056L10.047 76.0056L10.047 78.7397L3.06371e-05 78.7397Z" fill="#CECECE"/>
<path d="M20.7403 82.1318C18.8469 82.1318 17.3084 83.6702 17.3084 85.5636C17.3084 87.4569 18.8469 88.9952 20.7403 88.9952C22.6338 88.9952 24.1722 87.4569 24.1722 85.5636C24.1722 83.6702 22.6338 82.1318 20.7403 82.1318Z" fill="#CECECE"/>
<path d="M20.7403 67.5413C18.8469 67.5413 17.3084 69.0796 17.3084 70.9729C17.3084 72.8663 18.8469 74.4046 20.7403 74.4046C22.6338 74.4046 24.1722 72.8663 24.1722 70.9729C24.1722 69.0796 22.6338 67.5413 20.7403 67.5413Z" fill="#CECECE"/>
<path d="M20.7403 52.9504C18.8469 52.9504 17.3084 54.4887 17.3084 56.3821C17.3084 58.2754 18.8469 59.8138 20.7403 59.8138C22.6338 59.8138 24.1722 58.2754 24.1722 56.3821C24.1722 54.4887 22.6338 52.9504 20.7403 52.9504Z" fill="#CECECE"/>
<path d="M20.7403 38.3599C18.8469 38.3599 17.3084 39.8982 17.3084 41.7916C17.3084 43.6849 18.8469 45.2232 20.7403 45.2232C22.6338 45.2232 24.1722 43.6849 24.1722 41.7916C24.1722 39.8982 22.6338 38.3599 20.7403 38.3599Z" fill="#CECECE"/>
<path d="M20.7403 23.7693C18.8468 23.7693 17.3084 25.3077 17.3084 27.201C17.3084 29.0944 18.8468 30.6327 20.7403 30.6327C22.6338 30.6327 24.1722 29.0944 24.1722 27.201C24.1722 25.3077 22.6338 23.7693 20.7403 23.7693Z" fill="#CECECE"/>
</svg>
