<svg width="214" height="215" viewBox="0 0 214 215" fill="none" xmlns="http://www.w3.org/2000/svg">
<path d="M-0.000160217 182.546H214V184.372H-0.000160217V182.546Z" fill="#CECECE"/>
<path d="M-0.000160217 151.971H214V153.797H-0.000160217V151.971Z" fill="#CECECE"/>
<path d="M-0.000160217 121.393H214V123.219H-0.000160217V121.393Z" fill="#CECECE"/>
<path d="M-0.000160217 90.8157H214V92.6416H-0.000160217V90.8157Z" fill="#CECECE"/>
<path d="M-0.000160217 60.241H214V62.0669H-0.000160217V60.241Z" fill="#CECECE"/>
<path d="M-0.000160217 29.6633H214V31.4893H-0.000160217V29.6633Z" fill="#CECECE"/>
<path d="M29.6581 0H31.4838V214.035H29.6581V0Z" fill="#CECECE"/>
<path d="M60.2312 0H62.0569V214.035H60.2312V0Z" fill="#CECECE"/>
<path d="M90.8005 0H92.6261V214.035H90.8005V0Z" fill="#CECECE"/>
<path d="M121.374 0H123.199V214.035H121.374V0Z" fill="#CECECE"/>
<path d="M151.947 0H153.772V214.035H151.947V0Z" fill="#CECECE"/>
<path d="M182.516 0H184.341V214.035H182.516V0Z" fill="#CECECE"/>
<path d="M65.4118 58.856L32.6649 58.856L32.6649 26.1039L65.4118 26.1039V58.856Z" fill="#CECECE"/>
</svg>
